<?xml version="1.0" encoding="UTF-8" standalone="no"?>
<!-- Created with Inkscape (http://www.inkscape.org/) -->
<svg
   xmlns:svg="http://www.w3.org/2000/svg"
   xmlns="http://www.w3.org/2000/svg"
   version="1.0"
   width="504"
   height="504"
   id="svg2">
  <defs
     id="defs4" />
  <g
     transform="translate(-644.5291,-535.39502)"
     id="layer1">
    <path
       d="M 62.694889,460.19522 L 47.957668,445.43338 L 51.22884,442.3385 C 60.97637,433.1163 80.03121,422.28006 95.61091,417.09899 C 114.2867,410.8883 117.01485,410.59874 158.00001,410.47705 C 193.19537,410.37255 195.99167,410.232 203.50001,408.19006 C 214.73316,405.13514 224.93149,399.71406 232.511,392.76881 C 240.21442,385.71004 240.67556,384 234.87565,384 C 228.90106,384 206.96825,379.37976 196.50001,375.91601 C 184.36043,371.89924 163.00001,361.40755 163.00001,359.46166 C 163,358.62852 166.15001,345.37078 170.00001,330 C 173.85,314.62922 176.98849,301.70367 176.97442,301.27656 C 176.96034,300.84946 173.75831,298.475 169.85879,296 C 138.92741,276.36808 127.40305,234.1804 143.46467,199.37811 C 153.12011,178.45669 167.35727,164.48053 207.59987,136.41863 C 227.18811,122.75941 244.25731,109.63182 248.82918,104.71 L 251.15836,102.20255 L 247.05431,101.50917 C 241.249,100.52837 234.08541,95.35644 230.52915,89.57842 C 227.84923,85.224207 227.50001,83.77414 227.50001,77 C 227.5,70.22586 227.84922,68.77579 230.52915,64.42158 C 240.57863,48.093753 263.4214,48.09375 273.47087,64.42158 C 276.15081,68.775793 276.50001,70.22586 276.50001,77 C 276.50002,83.77414 276.1508,85.22421 273.47087,89.57842 C 269.91462,95.356437 262.75102,100.52837 256.94572,101.50917 L 252.84167,102.20255 L 255.17084,104.71 C 259.74271,109.63182 276.81191,122.7594 296.40015,136.41863 C 336.64275,164.48054 350.8799,178.45669 360.5353,199.37811 C 376.59699,234.1804 365.0726,276.36808 334.14123,296 C 330.2417,298.475 327.03967,300.84945 327.0256,301.27656 C 327.01153,301.70368 330.15001,314.62922 334.00001,330 C 337.85002,345.37078 341.00001,358.62853 341.00001,359.46166 C 341.00002,361.40754 319.63958,371.89925 307.50001,375.91601 C 297.03178,379.37975 275.09895,384 269.12437,384 C 263.32447,384 263.7856,385.71003 271.48902,392.76881 C 279.06854,399.71407 289.26685,405.13514 300.50001,408.19006 C 308.00836,410.232 310.80464,410.37255 346.00001,410.47705 C 377.98321,410.57201 384.6769,410.84985 391.5,412.36564 C 410.9909,416.69567 430.6876,425.41815 444.8753,436.0023 C 457.84769,445.67986 458.2036,443.32513 441.2032,460.29718 L 426.4693,475.00647 L 420.53241,470.56589 C 405.4095,459.2544 386.1527,451.34895 367,448.5893 C 361.225,447.75721 345.02501,446.61863 331.00001,446.05916 C 316.97502,445.49967 301.47957,444.34073 296.5657,443.48371 C 283.69902,441.23965 269.98409,436.39959 260.72773,430.83635 C 256.30192,428.17635 252.37444,426 252.00001,426 C 251.62557,426 247.69811,428.17636 243.27229,430.83635 C 234.01593,436.39958 220.301,441.23964 207.43432,443.48371 C 202.52044,444.34074 187.02501,445.49968 173.00001,446.05916 C 136.5724,447.51229 121.91576,450.06883 104.24853,458.05134 C 98.951942,460.44448 86.93819,467.90878 79.46606,473.44898 C 77.533333,474.88199 76.69875,474.22248 62.69489,460.19521 L 62.694889,460.19522 z"
       transform="translate(644.5291,535.39502)"
       id="path2496"
       style="fill:#000000" />
    <path
       d="M 260,226.5 L 260,214 L 272,214 L 284,214 L 284,206.5 L 284,199 L 272,199 L 260,199 L 260,186.5 L 260,174 L 252.50002,174 L 245.00002,174 L 245.00002,186.5 L 245.00002,199 L 232.50002,199 L 220.00002,199 L 220.00002,206.5 L 220.00002,214 L 232.50002,214 L 245.00002,214 L 245.00002,226.5 L 245.00002,239 L 252.50002,239 L 260,239 L 260,226.5 z"
       transform="translate(644.5291,535.39502)"
       id="path2395"
       style="fill:#ffffff" />
    <path
       d="M 205.27051,302.48074 C 210.09428,300.49725 218.41928,297.70585 223.77051,296.27762 C 232.58107,293.9261 235.24732,293.68084 252.00001,293.68084 C 268.75269,293.68083 271.41895,293.9261 280.22951,296.27762 C 287.98555,298.34769 301.24055,303.16628 308.51083,306.55874 C 309.37016,306.95972 316.00001,296.40856 316.00001,294.63998 C 316.00002,293.60996 306.92432,289.37631 297.88051,286.18753 C 281.44568,280.39275 270.31767,278.53721 252.00001,278.53721 C 233.68234,278.53722 222.55433,280.39275 206.11951,286.18753 C 197.0757,289.37631 188.00001,293.60996 188.00001,294.63998 C 188,296.40856 194.62986,306.95973 195.48919,306.55874 C 196.04513,306.29932 200.44673,304.46422 205.27051,302.48074 z"
       transform="translate(644.5291,535.39502)"
       id="path2393"
       style="fill:#ffffff" />
    <path
       d="M 185.31982,363.13092 C 202.96836,351.01785 229.50256,343.01179 252.00001,343.01179 C 274.49745,343.0118 301.03166,351.01785 318.68019,363.13093 C 320.97929,364.70893 323.06272,366 323.31004,366 C 323.81663,366 332.00001,355.32141 332.00001,354.66037 C 332.00002,353.58494 318.48377,345.62082 309.00001,341.10817 C 285.07995,329.72629 258.97729,325.73996 233.31736,329.55009 C 219.1081,331.65997 207.49349,335.16341 195.00001,341.10817 C 185.51624,345.62081 172.00001,353.58494 172.00001,354.66037 C 172,355.32141 180.1834,366 180.68998,366 C 180.93729,366 183.02074,364.70892 185.31983,363.13093 L 185.31982,363.13092 z"
       transform="translate(644.5291,535.39502)"
       id="path2391"
       style="fill:#ffffff" />
  </g>
</svg>
