<?xml version="1.0" encoding="UTF-8" standalone="no"?>
<!-- Created with Inkscape (http://www.inkscape.org/) -->
<svg
   xmlns:svg="http://www.w3.org/2000/svg"
   xmlns="http://www.w3.org/2000/svg"
   version="1.0"
   width="504"
   height="504"
   id="svg2">
  <defs
     id="defs4" />
  <g
     transform="translate(-572.76764,-269.79076)"
     id="layer1">
    <path
       d="M 157.19107,457.85678 C 155.72714,444.18679 158.53976,428.7987 164.75022,416.5 C 169.87454,406.35223 176.86399,398.12467 198.7309,376.5 C 211.70096,363.67363 222.58104,351.97432 225.70021,347.5 C 235.84302,332.95055 243.60182,314.95809 247.36142,297.26818 C 249.2886,288.20032 249.88137,263.46678 248.41717,253.21655 L 247.59103,247.43311 L 241.41718,251.82013 C 229.90977,259.99708 218.3028,266.8222 197.5936,277.58924 C 158.02892,298.15955 151.27523,304.25908 136.32017,332.92778 C 127.9625,348.94935 123.1698,356.07438 117.23869,361.29516 C 112.46607,365.49617 105.4939,368.5 100.51551,368.5 C 93.950799,368.5 87.75459,362.31275 87.74704,355.75 L 87.743309,352.5 L 82.292526,352.5 C 74.20808,352.5 67.05508,350.70338 59.51887,346.77995 C 38.950049,336.0716 31.78564,313.07746 40.71436,286.42701 C 44.985421,273.67877 49.06747,266.24356 64.55654,243 C 80.653879,218.84365 85.60006,209.96368 89.90029,197.5 C 93.118749,188.1717 93.17896,187.67468 93.23143,170 C 93.29833,147.468 93.17229,147.74886 111.18235,130 C 126.23544,115.16522 132.74331,106.13683 132.74331,100.08842 C 132.7433,97.927873 131.81657,84.95398 130.68389,71.25754 C 129.55122,57.561102 128.76371,45.25881 128.93389,43.91912 C 129.226,41.619669 130.95636,42.51182 159.84589,59.8569 L 190.44846,78.230476 L 208.64024,58.865238 C 218.64571,48.21436 227.17624,39.5 227.59697,39.5 C 228.01769,39.5 233.83977,51.5375 240.53491,66.25 C 247.23006,80.9625 253.08218,92.9154 253.53964,92.81199 C 260.26593,91.291541 274.46752,90.34635 283.74331,90.80179 C 319.19836,92.542612 349.63468,106.2306 375.24331,131.95169 C 398.8867,155.69893 414.3131,183.10052 429.31606,228 C 450.30975,290.82823 464.03886,370.81121 466.40086,444.04845 L 467.06046,464.5 L 312.48151,464.5 L 157.9025,464.5 L 157.19107,457.85678 z"
       transform="translate(572.76764,269.79076)"
       id="path2396"
       style="fill:#000000" />
    <path
       d="M 126.71787,187.20863 C 133.1463,184.03157 137.00938,181.20707 142.71787,175.51017 C 149.63334,168.60873 157.74331,156.86262 157.74331,153.748 C 157.7433,150.40128 148.39282,149.56742 142.23473,152.36498 C 136.74176,154.8604 133.16056,159.24084 123.95266,174.72725 C 112.70667,193.64144 113.08674,192.8234 115.90748,192.04308 C 117.19219,191.68769 122.05686,189.51218 126.71787,187.20863 z"
       transform="translate(572.76764,269.79076)"
       id="path2388"
       style="fill:#ffffff" />
    <path
       d="M 76.493179,304.54321 C 77.73075,302.70677 78.74331,300.12343 78.74331,298.80246 C 78.743311,293.11617 73.17068,287.49459 67.54297,287.50374 C 63.191671,287.5108 58.74246,291.26016 56.01453,297.21875 C 53.9536,301.72042 53.32172,304.93516 52.9401,312.86021 L 52.459759,322.83545 L 63.35141,315.3588 C 69.34181,311.24665 75.25561,306.37963 76.49318,304.5432 L 76.493179,304.54321 z"
       transform="translate(572.76764,269.79076)"
       id="path2386"
       style="fill:#ffffff" />
    <path
       d="M 458.38177,454.95245 C 460.88966,452.44459 460.91906,452.23831 460.27426,441.70246 C 456.62946,382.15204 450.26796,336.41494 438.13116,282.5 C 427.84986,236.82766 417.34543,205.15878 403.63476,178.5 C 394.60268,160.9382 385.61846,148.36319 373.25147,135.97327 C 353.97063,116.65666 333.1908,105.23071 306.66209,99.35855 C 288.13196,95.256899 253.18262,96.64714 247.75716,101.70173 C 244.81346,104.44419 245.3267,110.1201 248.74831,112.66299 C 251.12909,114.43234 251.74893,114.44996 261.24831,113.01822 C 298.67533,107.37727 333.28446,118.23552 360.8941,144.28106 C 387.95571,169.8096 406.94296,212.58752 423.13119,284.5 C 434.85635,336.58648 441.30086,381.69405 444.77586,435.99963 C 445.74017,451.0683 446.10386,453.25487 447.97786,455.24963 C 450.83465,458.29059 455.16736,458.16683 458.38176,454.95246 L 458.38177,454.95245 z"
       transform="translate(572.76764,269.79076)"
       id="path2384"
       style="fill:#ffffff" />
  </g>
</svg>
