<?xml version="1.0" encoding="UTF-8" standalone="no"?>
<!-- Created with Inkscape (http://www.inkscape.org/) -->
<svg
   xmlns:svg="http://www.w3.org/2000/svg"
   xmlns="http://www.w3.org/2000/svg"
   version="1.0"
   width="504"
   height="504"
   id="svg2482">
  <defs
     id="defs2484" />
  <g
     transform="translate(-458.89205,-202.88635)"
     id="layer1">
    <path
       d="M 559.7643,645.58857 C 557.54417,632.24111 558.01404,605.65397 560.70939,592.11081 C 568.94055,550.75233 593.07722,514.73528 627.39205,492.60608 C 638.36181,485.53182 648.76757,480.57915 663.89205,475.23374 C 664.82397,474.90437 662.36231,473.13097 657.39205,470.5511 C 645.43427,464.34427 634.66548,453.25161 628.52592,440.81684 C 622.51621,428.64507 620.52765,419.41391 621.20638,406.83857 C 622.18076,388.78573 628.87146,373.90025 641.89205,360.81711 C 653.53396,349.11928 671.91876,340.83857 686.24836,340.83857 L 691.28474,340.83857 L 685.83839,338.14146 C 678.7442,334.62831 669.97765,325.80248 666.5032,318.6755 C 658.52054,302.30106 661.5911,283.00909 674.18431,270.41587 C 693.49329,251.10689 728.29081,251.10689 747.59979,270.41587 C 760.193,283.00909 763.26356,302.30106 755.2809,318.6755 C 751.80645,325.80248 743.0399,334.62831 735.94571,338.14146 L 730.49936,340.83857 L 735.53574,340.83857 C 749.86534,340.83857 768.25014,349.11928 779.89205,360.81711 C 792.91264,373.90025 799.60334,388.78573 800.57772,406.83857 C 801.25645,419.41391 799.26789,428.64507 793.25818,440.81684 C 787.11862,453.25161 776.34983,464.34427 764.39205,470.5511 C 759.42179,473.13097 756.96013,474.90437 757.89205,475.23374 C 773.01653,480.57915 783.42229,485.53182 794.39205,492.60608 C 828.70688,514.73528 852.84355,550.75233 861.07471,592.11081 C 863.77006,605.65397 864.23993,632.24111 862.0198,645.58857 L 860.64755,653.83857 L 710.89205,653.83857 L 561.13655,653.83857 L 559.7643,645.58857 z"
       id="path2505"
       style="fill:#000000" />
  </g>
</svg>
