<?xml version="1.0" encoding="UTF-8" standalone="no"?>
<!-- Created with Inkscape (http://www.inkscape.org/) -->
<svg
   xmlns:svg="http://www.w3.org/2000/svg"
   xmlns="http://www.w3.org/2000/svg"
   version="1.0"
   width="504"
   height="504"
   id="svg2">
  <defs
     id="defs4" />
  <g
     transform="translate(-523.71429,-225.64789)"
     id="layer1">
    <path
       d="M 90,422.5 L 90,404 L 102.5,404 L 115,404 L 115,382.6452 L 115,361.29041 L 136,338.9288 L 157,316.5672 L 157,242.00885 L 157,167.4505 L 132.55624,148.97525 L 108.11248,130.50002 L 108.05624,96.750008 L 108,63.000011 L 136.5,63.000011 L 165,63.000011 L 165,78.000008 L 165,93.000008 L 191,93.000008 L 217,93.000008 L 217,78.000008 L 217,63.000011 L 252,63.000011 L 287,63.000011 L 287,78.000008 L 287,93.000008 L 313,93.000008 L 339,93.000008 L 339,78.000008 L 339,63.000011 L 367.5,63.000011 L 396,63.000011 L 395.94794,96.750008 L 395.89587,130.50002 L 371.44946,149.00002 L 347.00302,167.50002 L 347.0015,242.1962 L 347,316.8924 L 367.97107,339.1962 L 388.94214,361.5 L 388.97107,382.75 L 389,404 L 401.5,404 L 414,404 L 414,422.5 L 414,441 L 252,441 L 90,441 L 90,422.5 z"
       transform="translate(523.71429,225.64789)"
       id="path2406"
       style="fill:#000000" />
    <path
       d="M 387.54544,134.54546 C 388.89545,133.19546 390,130.92501 390,129.50001 C 390,128.075 388.89545,125.80456 387.54545,124.45456 L 385.09091,122.00001 L 252,122.00001 L 118.90909,122.00001 L 116.45455,124.45456 C 115.10455,125.80456 114,128.07501 114,129.50001 C 114,130.925 115.10455,133.19546 116.45455,134.54546 L 118.90909,137.00002 L 252,137.00002 L 385.09091,137.00002 L 387.54544,134.54546 z"
       transform="translate(523.71429,225.64789)"
       id="path2392"
       style="fill:#ffffff" />
    <path
       d="M 337.54544,172.54546 C 338.89545,171.19546 340,168.92501 340,167.50001 C 340,166.075 338.89545,163.80456 337.54545,162.45456 L 335.09091,160.00002 L 252,160.00002 L 168.90909,160.00002 L 166.45454,162.45456 C 165.10455,163.80456 164,166.07501 164,167.50001 C 164,168.925 165.10455,171.19546 166.45455,172.54546 L 168.90909,175.00002 L 252,175.00002 L 335.09091,175.00002 L 337.54544,172.54546 z"
       transform="translate(523.71429,225.64789)"
       id="path2390"
       style="fill:#ffffff" />
    <path
       d="M 337.54544,321.54547 C 338.89545,320.19546 340,317.92501 340,316.50001 C 340,315.07502 338.89545,312.80456 337.54545,311.45456 L 335.09091,309 L 252,309 L 168.90909,309 L 166.45454,311.45456 C 165.10455,312.80456 164,315.07501 164,316.50001 C 164,317.92502 165.10455,320.19546 166.45455,321.54546 L 168.90909,324 L 252,324 L 335.09091,324 L 337.54544,321.54547 z"
       transform="translate(523.71429,225.64789)"
       id="path2388"
       style="fill:#ffffff" />
    <path
       d="M 379.08667,367.7182 C 383.42932,364.38402 383.68969,359.65211 379.73331,355.96618 C 377.6582,354.03291 375.52016,354.00001 252,354.00001 C 128.47984,354.00002 126.3418,354.03292 124.26669,355.96618 C 120.31031,359.6521 120.57068,364.38402 124.91334,367.71821 C 127.22399,369.49227 376.77601,369.49226 379.08666,367.71821 L 379.08667,367.7182 z"
       transform="translate(523.71429,225.64789)"
       id="path2386"
       style="fill:#ffffff" />
    <path
       d="M 379.08667,409.7182 C 383.42932,406.38402 383.68969,401.65211 379.73331,397.96618 C 377.6582,396.03291 375.52016,396.00001 252,396.00001 C 128.47984,396.00002 126.3418,396.03292 124.26669,397.96618 C 120.31031,401.6521 120.57068,406.38402 124.91334,409.71821 C 127.22399,411.49227 376.77601,411.49226 379.08666,409.71821 L 379.08667,409.7182 z"
       transform="translate(523.71429,225.64789)"
       id="path2384"
       style="fill:#ffffff" />
  </g>
</svg>
