<?xml version="1.0" encoding="UTF-8" standalone="no"?>
<!-- Created with Inkscape (http://www.inkscape.org/) -->
<svg
   xmlns:svg="http://www.w3.org/2000/svg"
   xmlns="http://www.w3.org/2000/svg"
   version="1.0"
   width="504"
   height="504"
   id="svg2">
  <defs
     id="defs4" />
  <g
     transform="translate(-67.114891,-584.71365)"
     id="layer1">
    <path
       d="M 57.35181,455.07425 C 47.805809,445.58675 39.745229,436.83105 39.439399,435.61715 C 38.373198,431.38514 40.645139,427.91735 48.797959,421.33265 C 64.65927,408.52198 82.761799,399.40997 102.57864,394.26182 C 119.895,389.76325 128.48809,389.06919 157.57864,389.81956 C 191.85267,390.70365 206.27303,388.81474 217.47911,381.97328 L 221.37958,379.59198 L 213.47911,377.87311 C 200.09077,374.96026 182.07918,368.52067 169.03594,361.98356 C 151.06091,352.97471 151.68696,355.79446 160.17266,322.06288 C 163.94141,307.08165 167.02731,294.37427 167.03023,293.82427 C 167.03313,293.27426 164.54116,291.03703 161.4925,288.85263 C 146.70293,278.25566 135.27138,261.0157 129.86888,241.1609 C 128.04292,234.45024 127.61669,230.38628 127.68358,220.32427 C 127.78316,205.34241 129.89301,196.41096 136.57983,182.66444 C 147.122,160.99218 161.27703,146.97715 200.57864,119.29854 C 213.99922,109.84693 225.05491,101.72435 232.82646,95.60611 C 234.16575,94.55175 233.68937,93.74498 229.28359,89.60611 C 221.99428,82.75838 218.59368,75.03346 218.58519,65.30324 C 218.57346,51.858312 225.99628,40.68539 239.07864,34.45622 C 246.86459,30.748921 257.29266,30.74892 265.07864,34.45622 C 273.22946,38.337241 278.52822,43.46077 282.28663,51.09522 C 288.82047,64.367281 285.9685,79.18342 274.87367,89.60611 C 270.46792,93.74498 269.99153,94.55175 271.3308,95.60611 C 279.10235,101.72435 290.15804,109.84693 303.57864,119.29854 C 342.88024,146.97715 357.03526,160.99218 367.57744,182.66444 C 374.26425,196.41096 376.3741,205.3424 376.4737,220.32427 C 376.54057,230.38629 376.11435,234.45024 374.28839,241.1609 C 368.8859,261.0157 357.45436,278.25566 342.66476,288.85263 C 339.61611,291.03703 337.12414,293.27427 337.12705,293.82427 C 337.12995,294.37426 340.21587,307.08164 343.98462,322.06288 C 352.47032,355.79447 353.09636,352.9747 335.12134,361.98356 C 322.07808,368.52068 304.06651,374.96026 290.67816,377.87311 L 282.77771,379.59198 L 286.67816,381.97327 C 297.88424,388.81474 312.30458,390.70364 346.57864,389.81956 C 375.66916,389.0692 384.26227,389.76324 401.57864,394.26182 C 421.52846,399.44458 439.21448,408.38047 455.56466,421.53865 C 462.34967,426.99896 464.11042,428.97675 464.6241,431.71495 C 464.97479,433.58426 464.80437,435.94855 464.24541,436.96895 C 463.68644,437.98934 455.62779,446.36175 446.33727,455.57425 C 434.54332,467.26915 428.76666,472.32425 427.1963,472.32425 C 424.31889,472.32425 422.52837,471.33985 414.85073,465.53695 C 406.98247,459.58994 394.79705,453.21965 385.06462,449.96545 C 374.03443,446.27735 359.64515,444.52295 331.07864,443.38345 C 295.27143,441.95505 279.59186,438.81435 261.37554,429.42165 L 252.07864,424.62796 L 242.78172,429.42166 C 224.5654,438.81435 208.88584,441.95505 173.07864,443.38345 C 144.5121,444.52295 130.12284,446.27735 119.09265,449.96545 C 109.36022,453.21965 97.174799,459.58995 89.306529,465.53695 C 81.628002,471.34054 79.838469,472.32425 76.959149,472.32425 C 75.382306,472.32425 69.510309,467.15825 57.351809,455.07425 L 57.35181,455.07425 z"
       transform="translate(67.114891,584.71365)"
       id="path2437"
       style="fill:#000000" />
    <path
       d="M 191.81297,274.8912 C 229.1454,263.18511 266.08875,262.35169 303.82277,272.36434 C 310.00705,274.00532 317.54995,276.27698 320.58478,277.41246 L 326.10269,279.47696 L 330.9082,275.94937 C 357.56304,256.38292 366.50144,220.50384 352.12207,190.79607 C 342.72734,171.38659 328.25998,157.71706 285.47492,127.82427 C 278.39006,122.87427 267.97754,115.12901 262.336,110.61259 L 252.07864,102.40091 L 241.82127,110.61259 C 236.17973,115.12901 225.76722,122.87427 218.68235,127.82427 C 175.8973,157.71706 161.42994,171.38659 152.03521,190.79607 C 139.89939,215.86863 144.12421,245.6905 162.74547,266.39675 C 168.25502,272.5232 177.32569,279.46652 179.07864,278.89928 C 179.90363,278.6323 185.63409,276.82868 191.81297,274.8912 z"
       transform="translate(67.114891,584.71365)"
       id="path2612"
       style="fill:#ffffff" />
    <path
       d="M 184.81024,328.37048 C 194.20418,324.54241 211.10713,319.79885 223.07864,317.63103 C 236.28698,315.23924 267.87955,315.24022 281.07864,317.63283 C 293.53155,319.89016 307.46342,323.77881 318.40772,328.05207 C 323.26372,329.94813 327.439,331.29725 327.68612,331.05013 C 327.93323,330.80299 326.21014,322.84222 323.85703,313.3595 C 318.90564,293.40614 320.37717,295.08696 303.77953,290.42642 C 285.84974,285.39183 273.79154,283.86045 252.07864,283.86045 C 230.36571,283.86046 218.30752,285.39183 200.37775,290.42642 C 183.84749,295.06803 185.18218,293.60961 180.65742,311.97489 C 178.50969,320.69206 176.54839,328.61177 176.29894,329.57427 C 175.69438,331.90683 176.36493,331.81201 184.81025,328.37049 L 184.81024,328.37048 z"
       transform="translate(67.114891,584.71365)"
       id="path2610"
       style="fill:#ffffff" />
    <path
       d="M 285.69107,360.88181 C 297.67218,358.39242 312.35766,353.74916 319.0186,350.34431 L 322.45856,348.58591 L 317.71698,346.48849 C 309.30353,342.76682 291.84504,337.56287 281.57864,335.71653 C 267.61259,333.20484 236.54467,333.20483 222.57864,335.71653 C 212.31221,337.56288 194.85375,342.76682 186.44028,346.4885 L 181.69872,348.58591 L 185.13867,350.3443 C 194.98275,355.37628 216.71517,361.31012 232.72485,363.33727 C 245.31972,364.93204 272.19398,363.68618 285.69108,360.8818 L 285.69107,360.88181 z"
       transform="translate(67.114891,584.71365)"
       id="path2608"
       style="fill:#ffffff" />
    <path
       d="M 84.228149,447.68015 C 92.128909,442.29915 108.36856,434.78515 118.26765,431.93035 C 131.43495,428.13294 145.03681,426.50385 173.07864,425.36555 C 187.10362,424.79636 201.50364,423.86305 205.07864,423.29175 C 220.23507,420.86955 233.8989,415.64455 245.00106,408.02577 C 250.56819,404.20538 253.58909,404.20537 259.15622,408.02577 C 270.25838,415.64456 283.9222,420.86955 299.07864,423.29175 C 302.65363,423.86305 317.05363,424.79635 331.07864,425.36555 C 359.12046,426.50386 372.72233,428.13295 385.88962,431.93035 C 395.82774,434.79644 412.03474,442.30385 420.01445,447.73755 L 425.45029,451.43906 L 434.37238,442.51694 L 443.29449,433.59485 L 434.82004,427.95615 C 421.40108,419.02745 408.01794,413.37777 391.57864,409.70157 C 384.72899,408.16987 378.18634,407.89717 346.07864,407.80507 C 308.82093,407.69816 308.51513,407.68037 298.7517,405.04897 C 293.34687,403.59226 286.42729,401.25707 283.3748,399.85957 C 276.95637,396.92113 266.89184,389.91467 262.64155,385.42605 C 259.85661,382.48493 259.30944,382.32427 252.07864,382.32427 C 244.84782,382.32426 244.30068,382.48494 241.51573,385.42605 C 237.26544,389.91466 227.20092,396.92112 220.78247,399.85957 C 217.72998,401.25708 210.81039,403.59227 205.40558,405.04897 C 195.64213,407.68036 195.33632,407.69817 158.07864,407.80507 C 125.97092,407.89716 119.42828,408.16987 112.57864,409.70157 C 96.274832,413.34747 83.277899,418.80915 69.436949,427.83115 L 60.773579,433.47824 L 69.655258,442.40125 C 74.540189,447.30885 78.613599,451.32425 78.707299,451.32425 C 78.80099,451.32425 81.285379,449.68445 84.228149,447.68015 z"
       transform="translate(67.114891,584.71365)"
       id="path2606"
       style="fill:#ffffff" />
    <path
       d="M 260.15695,79.050468 C 270.79694,71.88018 270.79694,58.76836 260.15695,51.59807 C 250.34419,44.985252 236.07864,53.11754 236.07864,65.32427 C 236.07863,77.530998 250.34419,85.66329 260.15695,79.05047 L 260.15695,79.050468 z"
       transform="translate(67.114891,584.71365)"
       id="path2616"
       style="fill:#ffffff" />
    <path
       d="M 246.99197,234.04247 C 243.74596,231.55025 243.07864,228.46804 243.07864,215.96749 L 243.07864,203.47923 L 229.48964,203.15175 C 216.01328,202.82698 215.88065,202.80101 213.48964,200.01851 C 210.40879,196.43321 210.40879,192.21533 213.48964,188.63003 C 215.87934,185.84904 216.01996,185.82139 229.41357,185.4982 L 242.92651,185.17213 L 243.25256,171.65919 C 243.57576,158.26559 243.60341,158.12497 246.38439,155.73527 C 249.9697,152.65441 254.18758,152.65442 257.77288,155.73527 C 260.55384,158.12496 260.58152,158.26559 260.9047,171.6592 L 261.23077,185.17213 L 274.74371,185.4982 C 288.13732,185.82139 288.27794,185.84905 290.66764,188.63003 C 293.74849,192.21532 293.74849,196.43321 290.66764,200.01851 C 288.27663,202.80101 288.144,202.82698 274.66764,203.15175 L 261.07864,203.47923 L 261.07864,215.96748 C 261.07864,228.46804 260.41132,231.55025 257.1653,234.04247 C 255.11946,235.61319 249.03778,235.61319 246.99198,234.04247 L 246.99197,234.04247 z"
       transform="translate(67.114891,584.71365)"
       id="path2614"
       style="fill:#000000" />
  </g>
</svg>
