<?xml version="1.0" encoding="UTF-8" standalone="no"?>
<!-- Created with Inkscape (http://www.inkscape.org/) -->
<svg
   xmlns:svg="http://www.w3.org/2000/svg"
   xmlns="http://www.w3.org/2000/svg"
   version="1.0"
   width="504"
   height="504"
   id="svg2">
  <defs
     id="defs4" />
  <g
     transform="translate(-213.41083,-9.6260986)"
     id="layer1">
    <path
       d="M 203.30591,470.98099 C 165.48764,468.60442 130.86518,459.99732 104.76136,446.48292 C 97.44679,442.69606 95.09189,440.96166 94.357,438.82011 C 93.687058,436.86785 94.13039,430.08946 95.86128,415.82011 L 98.315437,395.58817 L 95.94297,369.08817 L 93.570503,342.58817 L 87.551376,332.08817 C 79.26368,317.63076 69.35171,302.9647 57.47634,287.58818 C 40.545719,265.66597 34.87352,256.18739 30.24814,242.08818 C 27.85405,234.79046 27.44876,231.89084 27.38277,221.58818 C 27.319159,211.65692 27.70984,208.29522 29.64894,202.08818 C 36.843411,179.05885 52.38338,162.07504 73.16126,154.53307 C 92.699927,147.44092 111.07005,147.48808 133.97685,154.68922 C 156.24273,161.68887 184.10278,178.58122 204.44983,197.419 L 210.3712,202.90114 L 208.16141,194.1358 C 203.59467,176.02146 202.74007,162.16392 205.39655,149.30308 C 208.34713,135.0184 215.19275,122.25397 224.01852,114.58031 C 228.18791,110.95519 240.95651,104.08817 243.5277,104.08817 C 244.51663,104.08817 244.80591,100.1275 244.80591,86.588171 L 244.80591,69.088173 L 228.30591,69.088173 L 211.80591,69.088173 L 211.80591,61.588173 L 211.80591,54.088173 L 228.30591,54.088173 L 244.80591,54.088173 L 244.80591,43.088173 L 244.80591,32.088173 L 252.30591,32.088173 L 259.80591,32.088173 L 259.80591,43.088173 L 259.80591,54.088173 L 275.80591,54.088173 L 291.80591,54.088173 L 291.80591,61.588173 L 291.80591,69.088173 L 275.80591,69.088173 L 259.80591,69.088173 L 259.80701,86.338173 L 259.80807,103.58817 L 267.05701,106.85076 C 283.36544,114.19087 293.93806,128.59579 298.21527,149.30308 C 300.87175,162.16392 300.01715,176.02146 295.45042,194.1358 L 293.24063,202.90114 L 299.16199,197.41901 C 313.92829,183.74801 333.71213,170.31835 351.3059,162.02271 C 375.23869,150.73813 397.8227,146.80211 416.5012,150.66026 C 433.66321,154.20517 444.4502,159.81105 455.809,171.08818 C 472.19371,187.35495 479.8376,211.99775 475.3617,234.12333 C 472.06931,250.39862 465.3189,262.75692 446.1578,287.58818 C 434.26569,302.99942 424.3406,317.67811 416.0672,332.09088 L 410.04129,342.58817 L 407.66879,369.08817 L 405.29639,395.58817 L 407.75049,415.8201 C 409.4814,430.08946 409.9248,436.86784 409.2548,438.82011 C 408.51991,440.96167 406.165,442.69605 398.8505,446.48292 C 371.90281,460.43418 338.72529,468.5009 297.80591,471.05071 C 278.87076,472.23062 222.52991,472.18905 203.30591,470.98098 L 203.30591,470.98099 z"
       transform="translate(213.41083,9.6260986)"
       id="path2443"
       style="fill:#000000" />
    <path
       d="M 253.09496,266.3382 C 253.38223,265.37567 257.29341,254.01318 261.78648,241.08818 C 278.74116,192.31539 280.34271,186.4844 281.43605,169.54772 C 282.54944,152.3005 279.23592,140.40251 270.581,130.57 C 265.55615,124.86146 258.10795,121.10771 251.80591,121.10771 C 245.50387,121.10771 238.05568,124.86146 233.03082,130.57 C 224.3759,140.40251 221.06239,152.30049 222.17577,169.54772 C 223.26911,186.48441 224.87067,192.31539 241.82534,241.08818 C 246.31842,254.01318 250.22959,265.37567 250.51686,266.33818 C 250.80413,267.30066 251.3842,268.08818 251.80591,268.08818 C 252.22762,268.08817 252.80769,267.30067 253.09496,266.33818 L 253.09496,266.3382 z"
       transform="translate(213.41083,9.6260986)"
       id="path2397"
       style="fill:#ffffff" />
    <path
       d="M 401.72531,322.02051 C 408.1993,310.28814 421.5886,290.54896 433.8992,274.58818 C 452.5998,250.34267 457.5395,240.41357 458.4982,225.1423 C 459.5592,208.24074 454.5428,194.60117 443.0562,183.15576 C 431.11429,171.25656 417.1968,166.42067 397.8059,167.43266 C 379.68659,168.37829 363.5734,173.93411 342.9399,186.35039 C 309.496,206.47541 279.30645,241.42167 271.12765,269.47748 C 269.15327,276.25017 264.72837,296.3128 262.47414,308.71262 L 261.90613,311.83707 L 275.10602,312.50052 C 313.50869,314.43081 362.8127,321.40588 388.3059,328.51502 C 396.78289,330.87896 396.857,330.84312 401.7253,322.02051 L 401.72531,322.02051 z"
       transform="translate(213.41083,9.6260986)"
       id="path2395"
       style="fill:#ffffff" />
    <path
       d="M 125.30591,326.22357 C 154.56764,319.53248 188.38717,314.85123 220.80591,313.00459 C 232.08091,312.36236 241.40657,311.75527 241.52959,311.65551 C 242.0368,311.24426 234.70059,276.97636 232.49994,269.47748 C 224.24626,241.3524 194.10355,206.46802 160.67192,186.35039 C 140.03847,173.93412 123.92523,168.37829 105.80591,167.43266 C 86.415022,166.42067 72.49757,171.25656 60.5556,183.15576 C 49.060791,194.60942 44.02768,208.29981 45.13969,225.08818 C 46.16779,240.61002 51.32625,250.89141 70.48436,275.60302 C 82.16818,290.6737 95.46651,310.35695 101.85322,322.033 C 107.00705,331.45512 104.43614,330.99573 125.30591,326.22358 L 125.30591,326.22357 z"
       transform="translate(213.41083,9.6260986)"
       id="path2393"
       style="fill:#ffffff" />
    <path
       d="M 156.67171,372.63257 C 228.55919,356.64449 304.6193,359.16889 375.5286,379.89633 L 388.48279,383.68298 L 389.69629,368.63559 C 390.3638,360.3595 391.1469,352.20398 391.4365,350.51219 L 391.9632,347.43622 L 377.63449,344.18527 C 295.62431,325.57843 207.98751,325.57843 125.97727,344.18526 L 111.64862,347.43622 L 112.1753,350.51218 C 112.46497,352.20398 113.24805,360.3595 113.91548,368.63558 L 115.129,383.68298 L 128.08324,379.89633 C 135.20808,377.81368 148.07289,374.54499 156.6717,372.63258 L 156.67171,372.63257 z"
       transform="translate(213.41083,9.6260986)"
       id="path2391"
       style="fill:#ffffff" />
    <path
       d="M 153.30591,409.07761 C 190.03859,399.55616 213.07006,396.6504 251.80591,396.6504 C 273.00396,396.65041 284.02094,397.10559 294.80591,398.42705 C 322.44041,401.81303 353.2223,408.81044 378.0686,417.35454 C 387.9836,420.76411 390.728,421.39135 390.3687,420.16576 C 390.11439,419.29807 389.6012,415.33317 389.2285,411.35484 C 388.85581,407.37652 388.0457,403.45792 387.4283,402.64687 C 386.04709,400.83226 363.7672,394.27467 345.1449,390.20168 C 274.94159,374.84714 199.35409,377.31712 130.96695,397.20036 C 123.45338,399.3849 116.80082,401.83583 116.18348,402.64687 C 115.56614,403.45791 114.75607,407.37651 114.38333,411.35484 C 114.01058,415.33318 113.49747,419.29808 113.24309,420.16576 C 112.88378,421.39134 115.62821,420.76412 125.54324,417.35454 C 132.56271,414.94069 145.05591,411.21608 153.30591,409.0776 L 153.30591,409.07761 z"
       transform="translate(213.41083,9.6260986)"
       id="path2389"
       style="fill:#ffffff" />
    <path
       d="M 297.80591,453.05072 C 317.2115,451.84149 337.34354,449.06328 351.3059,445.66774 C 363.76739,442.63721 379.2367,437.1016 378.1333,436.06771 C 376.9381,434.94777 356.9917,428.66744 345.3059,425.73167 C 312.40461,417.46603 288.64751,414.6504 251.80591,414.6504 C 214.96431,414.65041 191.2072,417.46602 158.30591,425.73167 C 146.62017,428.66745 126.67372,434.94778 125.4785,436.06771 C 124.37596,437.10079 139.83595,442.63452 152.30591,445.67027 C 165.37835,448.85272 187.05206,451.95956 203.30591,452.98098 C 222.52991,454.18905 278.87076,454.23063 297.80591,453.05071 L 297.80591,453.05072 z"
       transform="translate(213.41083,9.6260986)"
       id="path2387"
       style="fill:#ffffff" />
  </g>
</svg>
