<?xml version="1.0" encoding="UTF-8" standalone="no"?>
<!-- Created with Inkscape (http://www.inkscape.org/) -->
<svg
   xmlns:svg="http://www.w3.org/2000/svg"
   xmlns="http://www.w3.org/2000/svg"
   version="1.0"
   width="504"
   height="504"
   id="svg2429">
  <defs
     id="defs2431" />
  <g
     transform="translate(267.6926,-489.51905)"
     id="layer1">
    <path
       d="M 155.20596,472.75244 C 147.13061,468.7204 145.92946,444.9437 152.78315,424.793 C 158.64052,407.57159 165.3996,398.47162 191.23793,373.01996 C 214.51589,350.09033 220.71671,342.54245 227.96045,328.31974 C 236.60545,311.34574 240.01483,297.91858 240.92285,277.26996 C 241.24331,269.98246 241.26477,264.01996 240.97052,264.01996 C 240.67627,264.01996 235.77137,266.87098 230.07074,270.35556 C 224.37011,273.84015 211.53596,280.83921 201.55041,285.90904 C 163.65142,305.15099 157.70128,310.80052 140.79138,343.59837 C 137.64989,349.69151 133.0657,357.24268 130.6043,360.37876 C 122.71771,370.42711 110.0405,378.01996 101.15019,378.01996 C 97.355798,378.01996 90.40389,375.4083 86.72115,372.59934 C 85.003957,371.28959 82.78697,368.41722 81.7945,366.21631 C 80.160768,362.59334 79.55073,362.14993 75.34799,361.5306 C 46.642228,357.3004 26.28452,332.32655 28.54121,304.11029 C 29.99211,285.96931 38.15482,267.83335 58.68287,237.14142 C 72.731971,216.13631 78.44159,205.94971 82.35861,194.90128 C 84.389038,189.17419 84.62534,186.6233 84.66347,170.01996 L 84.705963,151.51996 L 87.945137,144.68082 C 90.64384,138.98283 93.48399,135.56227 104.96669,124.18082 C 112.547,116.66735 120.0536,108.58505 121.64803,106.22016 L 124.54698,101.92037 L 122.35243,74.220169 C 119.32742,36.03771 119.31967,36.13701 125.52774,33.52671 C 129.75652,31.748639 129.55204,31.65003 161.52252,50.88546 C 176.27161,59.75943 188.68138,67.01996 189.09977,67.01996 C 189.51815,67.019962 197.41928,58.92983 206.65783,49.0419 C 220.5779,34.143379 224.04878,30.95248 226.92045,30.41375 C 233.0268,29.26819 234.47448,31.31256 246.90358,58.63321 L 258.29666,83.676537 L 264.50131,82.767982 C 273.41,81.46346 295.10035,82.61364 306.36453,84.98788 C 326.81806,89.299033 347.12879,98.09364 363.57109,109.7585 C 374.54871,117.54649 392.22874,135.4277 400.41334,147.01996 C 418.09868,172.06857 430.91623,200.10426 442.66558,239.4378 C 462.84046,306.97764 475.26885,385.96007 475.59949,448.73296 C 475.70361,468.50051 475.65576,468.99637 473.42826,471.23296 L 471.15057,473.51996 L 314.42825,473.76031 C 190.77898,473.94995 157.17839,473.73726 155.20596,472.75243 L 155.20596,472.75244 z"
       transform="translate(-267.6926,489.51905)"
       id="path2452"
       style="fill:#000000" />
    <path
       d="M 155.79091,67.8592 C 146.94419,62.54578 139.57925,58.32248 139.42439,58.4741 C 139.26953,58.625722 139.68086,65.9448 140.33847,74.73872 L 141.53412,90.727676 L 156.70499,84.123817 L 171.87585,77.519958 L 155.79091,67.8592 z"
       transform="translate(-267.6926,489.51905)"
       id="path2390"
       style="fill:#ffffff" />
    <path
       d="M 458.84439,455.47241 C 461.73176,452.58506 461.73112,452.46078 458.6248,413.01996 C 452.82163,339.33725 434.8525,252.62798 415.00203,202.51996 C 409.18851,187.84507 398.10736,166.86804 390.43831,156.01996 C 373.97659,132.73442 349.50834,113.66501 324.62474,104.72797 C 309.69546,99.366064 298.13706,97.51258 280.20596,97.60508 C 269.48868,97.66036 261.08989,98.23383 256.24146,99.24138 C 252.13598,100.09453 248.25436,100.59203 247.61562,100.34692 C 246.97689,100.10182 242.94531,92.16548 238.65657,82.71062 C 234.36782,73.255763 229.74097,63.07447 228.37466,60.08553 L 225.89047,54.6511 L 210.29822,70.75264 L 194.70595,86.854179 L 167.54065,98.544601 L 140.37534,110.23501 L 133.8251,119.00661 C 130.22247,123.83099 122.7552,131.94871 117.23117,137.046 C 102.4008,150.73067 102.72048,149.98666 102.63404,171.01996 C 102.57215,186.08206 102.25126,189.56477 100.33064,196.01996 C 96.544327,208.74566 88.11017,224.64135 73.80094,246.01996 C 58.104319,269.47138 49.93767,285.06312 47.6056,296.03198 C 45.623552,305.35454 46.20716,316.9995 48.96428,323.14218 C 53.831741,333.98655 65.79529,342.58995 77.53155,343.6859 L 83.952751,344.28552 L 90.650879,335.40274 C 94.33485,330.51721 98.32932,325.97341 99.52748,325.3054 C 104.37285,322.60397 109.58769,324.3199 111.68397,329.30549 C 113.44792,333.5007 112.57023,335.52192 104.07524,346.8277 C 100.22871,351.94695 97.22578,356.89695 97.40207,357.8277 C 97.982191,360.89053 104.19641,360.5339 108.83825,357.17137 C 115.26491,352.51593 119.55051,346.51329 128.26743,329.95789 C 132.73812,321.46703 138.35095,311.77754 140.74037,308.42568 C 149.91381,295.55727 163.74598,285.53876 192.55041,270.90012 C 220.88953,256.49795 245.95268,240.51531 253.34912,232.1291 C 262.07024,222.24095 265.76697,210.70816 264.90225,196.08648 C 264.25444,185.13274 265.36179,181.85849 270.29577,180.1385 C 272.80015,179.26546 274.12527,179.36237 276.75653,180.61098 C 280.93836,182.59539 282.2311,186.04232 282.92262,197.05205 C 283.97802,213.85497 276.45094,233.69698 264.35167,246.00668 L 257.70596,252.76797 L 258.51123,259.14395 C 259.7102,268.63707 258.50722,290.23202 256.20632,300.51996 C 251.67148,320.79639 243.13761,340.1057 231.96819,355.36277 C 228.65598,359.88715 216.30409,373.09502 204.23304,385.01996 C 182.70122,406.29116 176.47496,413.82209 171.57878,424.5168 C 168.46332,431.32181 166.24552,441.77971 166.22332,449.76996 L 166.20596,456.01996 L 307.64694,456.01996 C 400.86224,456.01996 449.29865,456.36092 449.70596,457.01996 C 450.9153,458.97671 456.24219,458.07463 458.8444,455.47242 L 458.84439,455.47241 z"
       transform="translate(-267.6926,489.51905)"
       id="path2384"
       style="fill:#ffffff" />
    <path
       d="M 115.27895,190.86459 C 119.80312,182.3421 132.84738,161.35902 135.49791,158.34023 C 140.89089,152.19796 149.24919,149.5651 155.64086,151.99521 C 157.05168,152.5316 158.20596,153.55433 158.20596,154.26796 C 158.20596,157.38258 150.09598,169.1287 143.18052,176.03013 C 137.47202,181.72702 133.60895,184.55153 127.18052,187.72859 C 122.51951,190.03214 117.65484,192.20765 116.37013,192.56304 C 114.18543,193.16742 114.11483,193.05752 115.27895,190.86459 z"
       transform="translate(-267.6926,489.51905)"
       id="path2388"
       style="fill:#000000" />
    <path
       d="M 53.402748,313.38016 C 53.78437,305.45512 54.41625,302.24038 56.47718,297.73871 C 59.20512,291.78012 63.65432,288.03077 68.00562,288.0237 C 73.633327,288.01454 79.20596,293.63613 79.20596,299.32242 C 79.205957,303.63414 74.89259,308.27383 63.81406,315.87876 L 52.922409,323.35541 L 53.402748,313.38016 z"
       transform="translate(-267.6926,489.51905)"
       id="path2386"
       style="fill:#000000" />
  </g>
</svg>
