<?xml version="1.0" encoding="UTF-8" standalone="no"?>
<!-- Created with Inkscape (http://www.inkscape.org/) -->
<svg
   xmlns:svg="http://www.w3.org/2000/svg"
   xmlns="http://www.w3.org/2000/svg"
   version="1.0"
   width="504"
   height="504"
   id="svg2535">
  <defs
     id="defs2537" />
  <g
     transform="translate(-387.20628,-272.99048)"
     id="layer1">
    <path
       d="M 99.308296,458.99225 C 93.20617,456.53429 90.66176,444.65583 90.63509,418.50184 C 90.613006,396.84899 92.13361,387.43704 98.97361,366.88956 C 111.9515,327.90372 140.37363,294.11674 175.5579,275.8495 L 185.61578,270.62756 L 180.55791,266.50684 C 169.7689,257.71688 160.16519,242.55754 155.81169,227.44525 C 153.94942,220.98075 153.53481,217.17458 153.58478,207.00184 C 153.63813,196.14298 154.01095,193.38586 156.42445,186.00184 C 163.96438,162.93367 177.16948,147.42585 198,137.17628 L 207.5,132.50185 L 203.27267,126.19514 C 194.80836,113.56736 192.17441,98.40378 195.98936,84.26537 C 200.23481,68.531527 208.72247,58.19266 223.28703,51.01392 C 242.10176,41.7403 261.89824,41.7403 280.71297,51.01392 C 295.27752,58.19266 303.76519,68.53153 308.01064,84.26537 C 311.82558,98.403777 309.19164,113.56736 300.72733,126.19514 L 296.5,132.50185 L 306,137.17628 C 326.83052,147.42585 340.03562,162.93368 347.57555,186.00184 C 349.98904,193.38585 350.36187,196.14299 350.41522,207.00184 C 350.46519,217.17457 350.05058,220.98075 348.18831,227.44525 C 343.8348,242.55754 334.2311,257.71688 323.4421,266.50683 L 318.38422,270.62756 L 328.44211,275.84949 C 363.62637,294.11674 392.0485,327.90372 405.02639,366.88956 C 411.86638,387.43704 413.38699,396.84898 413.36491,418.50184 C 413.33774,445.1521 410.8001,456.60655 404.3826,459.04647 C 401.15245,460.27457 102.35996,460.22146 99.3083,458.99224 L 99.308296,458.99225 z"
       transform="translate(387.20628,272.99048)"
       id="path2558"
       style="fill:#000000" />
    <path
       d="M 394.73096,439.25183 C 395.15393,437.73934 395.47068,428.17684 395.43485,418.00184 C 395.36225,397.38373 393.67741,386.75053 387.87862,370.31343 C 373.67894,330.06339 340.61981,296.66908 301,282.55401 C 291.04034,279.00574 289.22073,277.69535 288.43461,273.50499 C 287.45622,268.28966 289.6906,265.80495 299.70157,260.97576 C 330.94441,245.90449 342.32469,207.10472 324.51351,176.38227 C 319.68336,168.05078 308.39676,157.79084 298.86695,153.06863 C 290.90864,149.12513 286.76722,148.07103 272.89635,146.45841 C 267.75805,145.86104 264.36743,143.31399 263.35834,139.29346 C 262.31009,135.11687 264.86967,131.83525 271.96028,128.265 C 280.00696,124.21335 285.32204,119.0798 288.79855,112.00184 C 291.15828,107.19757 291.5,105.30013 291.5,97.00184 C 291.5,88.637751 291.16762,86.82501 288.72022,81.8413 C 285.27265,74.820909 279.73018,69.71802 271.12338,65.64005 C 264.79804,62.643057 263.93752,62.50184 252,62.50184 C 240.06248,62.501841 239.20196,62.64306 232.87662,65.64005 C 224.26982,69.718017 218.72736,74.82091 215.27978,81.8413 C 212.83237,86.825009 212.5,88.63775 212.5,97.00184 C 212.5,105.30013 212.84172,107.19757 215.20145,112.00184 C 218.67796,119.0798 223.99305,124.21335 232.03972,128.265 C 239.13033,131.83525 241.68991,135.11687 240.64166,139.29346 C 239.63257,143.31399 236.24194,145.86103 231.10365,146.45841 C 217.23278,148.07104 213.09137,149.12513 205.13305,153.06863 C 195.60323,157.79084 184.31663,168.05077 179.48649,176.38227 C 172.21273,188.92875 169.50743,204.22421 171.9748,218.85244 C 174.92123,236.3208 187.69396,252.96592 204.29843,260.97576 C 214.3094,265.80494 216.54379,268.28967 215.56539,273.50499 C 214.77928,277.69534 212.95966,279.00575 203,282.55401 C 163.38019,296.66907 130.32105,330.06338 116.12138,370.31343 C 110.32259,386.75054 108.63776,397.38372 108.56515,418.00184 C 108.52932,428.17685 108.84607,437.73934 109.26905,439.25184 L 110.0381,442.00183 L 252,442.00183 L 393.96191,442.00183 L 394.73096,439.25183 z"
       transform="translate(387.20628,272.99048)"
       id="path2384"
       style="fill:#ffffff" />
  </g>
</svg>
