<?xml version="1.0" encoding="UTF-8" standalone="no"?>
<!-- Created with Inkscape (http://www.inkscape.org/) -->
<svg
   xmlns:svg="http://www.w3.org/2000/svg"
   xmlns="http://www.w3.org/2000/svg"
   version="1.0"
   width="504"
   height="504"
   id="svg2383">
  <defs
     id="defs2385" />
  <g
     transform="translate(-554.82183,-264.50049)"
     id="layer1">
    <path
       d="M 86.082672,448.54767 C 81.54705,446.07408 81.05113,443.12361 81.3861,420.60549 L 81.694618,399.86536 L 84.500381,397.45389 C 87.03724,395.27352 88.2113,395.0424 96.75038,395.0424 L 106.19462,395.04239 L 106.19836,377.29239 C 106.20169,361.46014 106.41072,359.21828 108.13308,356.5424 C 109.19512,354.89241 118.62795,344.5424 129.09494,333.5424 L 148.12581,313.54239 L 148.15186,242.5424 L 148.1779,171.5424 L 124.64217,153.64427 C 111.69752,143.8003 100.67628,134.94239 100.15053,133.96001 C 99.594712,132.92145 99.19462,117.4766 99.19462,97.05848 C 99.194622,58.645801 99.3576,57.46017 104.95668,55.14096 C 106.99966,54.294729 116.54524,54.04104 138.47744,54.2501 C 176.44868,54.612051 173.53786,53.19406 174.02618,71.56737 L 174.35773,84.042397 L 191.27618,84.042397 L 208.19463,84.042397 L 208.19463,73.510277 C 208.19462,61.28235 209.52675,56.9759 213.86514,55.17887 C 216.01055,54.290219 226.6119,54.04637 253.96141,54.2566 C 299.489,54.606571 295.53212,52.97821 296.02618,71.56737 L 296.35773,84.042397 L 313.27618,84.042397 L 330.19461,84.042397 L 330.19461,72.992737 C 330.19462,60.58032 331.33199,57.05657 335.95668,55.14096 C 337.99967,54.294729 347.54524,54.04104 369.47744,54.2501 C 399.86527,54.539761 400.16234,54.56293 402.41822,56.81912 C 404.69266,59.093872 404.69487,59.12751 404.98059,95.68975 C 405.21691,125.92969 405.02079,132.65339 403.85109,134.41303 C 403.07256,135.58419 392.03533,144.4174 379.32387,154.0424 L 356.21213,171.5424 L 356.20673,242.5424 L 356.20132,313.54239 L 376.31061,335.02353 C 387.3707,346.83815 396.81919,357.55495 397.30725,358.83863 C 397.7953,360.12232 398.19462,368.75114 398.19462,378.01379 L 398.19461,394.85498 L 408.16885,395.1987 C 423.29219,395.71984 422.69462,394.59496 422.69462,422.5424 C 422.69463,444.56566 422.65188,445.02959 420.41692,447.26462 L 418.13922,449.54239 L 253.41692,449.75726 C 112.47907,449.94111 88.31748,449.76646 86.08267,448.54766 L 86.082672,448.54767 z"
       transform="translate(554.82183,264.50049)"
       id="path2449"
       style="fill:#000000" />
    <path
       d="M 387.19461,96.542397 L 387.19461,72.042397 L 367.77618,72.042397 L 348.35773,72.042397 L 348.02618,84.517441 C 347.54065,102.78557 350.05045,101.46991 314.98525,101.83786 C 294.93287,102.04828 286.00398,101.79186 283.96433,100.94701 C 279.33171,99.028114 278.19462,95.50929 278.19462,83.09206 L 278.19461,72.042397 L 252.19463,72.042397 L 226.19463,72.042397 L 226.19463,83.986641 C 226.19462,95.16891 226.04075,96.10986 223.78254,98.73664 L 221.37047,101.5424 L 193.09941,101.83786 C 172.95914,102.04835 164.00465,101.79214 161.96433,100.94701 C 157.33171,99.028114 156.19462,95.50929 156.19462,83.09206 L 156.19463,72.042397 L 136.69463,72.042397 L 117.19462,72.042397 L 117.19462,96.542397 L 117.19462,121.0424 L 252.19463,121.0424 L 387.19461,121.0424 L 387.19461,96.542397 z"
       transform="translate(554.82183,264.50049)"
       id="path2394"
       style="fill:#ffffff" />
    <path
       d="M 357.46912,148.7924 L 369.60614,139.5424 L 310.90039,139.28441 C 278.61221,139.14251 225.80447,139.14251 193.54985,139.28441 L 134.90508,139.5424 L 146.79985,148.74146 L 158.69463,157.94052 L 252.01338,157.99146 L 345.33215,158.0424 L 357.46912,148.7924 z"
       transform="translate(554.82183,264.50049)"
       id="path2392"
       style="fill:#ffffff" />
    <path
       d="M 338.19461,242.0424 L 338.19461,176.0424 L 252.19463,176.0424 L 166.19463,176.0424 L 166.19463,242.0424 L 166.19463,308.04239 L 252.19463,308.04239 L 338.19461,308.04239 L 338.19461,242.0424 z"
       transform="translate(554.82183,264.50049)"
       id="path2390"
       style="fill:#ffffff" />
    <path
       d="M 366.51721,350.72964 C 365.51478,349.4576 359.96962,343.38281 354.19462,337.23009 L 343.69461,326.04333 L 252.11742,326.04285 L 160.54021,326.04239 L 147.78635,339.54239 L 135.0325,353.04239 L 251.68614,353.04239 L 368.33978,353.04239 L 366.51721,350.72964 z"
       transform="translate(554.82183,264.50049)"
       id="path2388"
       style="fill:#ffffff" />
    <path
       d="M 380.19461,383.04239 L 380.19461,371.04239 L 252.19463,371.04239 L 124.19462,371.04239 L 124.19462,383.04239 L 124.19462,395.04239 L 252.19463,395.04239 L 380.19461,395.04239 L 380.19461,383.04239 z"
       transform="translate(554.82183,264.50049)"
       id="path2386"
       style="fill:#ffffff" />
    <path
       d="M 405.19461,422.54239 L 405.19461,413.04239 L 252.19463,413.04239 L 99.194618,413.04239 L 99.194618,422.54239 L 99.194618,432.04239 L 252.19463,432.04239 L 405.19461,432.04239 L 405.19461,422.54239 z"
       transform="translate(554.82183,264.50049)"
       id="path2384"
       style="fill:#ffffff" />
  </g>
</svg>
