<?xml version="1.0" encoding="UTF-8" standalone="no"?>
<!-- Created with Inkscape (http://www.inkscape.org/) -->

<svg
   xmlns:dc="http://purl.org/dc/elements/1.1/"
   xmlns:cc="http://creativecommons.org/ns#"
   xmlns:rdf="http://www.w3.org/1999/02/22-rdf-syntax-ns#"
   xmlns:svg="http://www.w3.org/2000/svg"
   xmlns="http://www.w3.org/2000/svg"
   xmlns:sodipodi="http://sodipodi.sourceforge.net/DTD/sodipodi-0.dtd"
   xmlns:inkscape="http://www.inkscape.org/namespaces/inkscape"
   width="110"
   height="110"
   id="svg3441"
   version="1.1"
   inkscape:version="0.48.3.1 r9886"
   sodipodi:docname="bb.svg">
  <defs
     id="defs3443">
    <filter
       id="filter2989"
       style="color-interpolation-filters:sRGB;"
       inkscape:label="Drop Shadow">
      <feFlood
         id="feFlood2991"
         flood-opacity="0.5"
         flood-color="rgb(0,0,0)"
         result="flood" />
      <feComposite
         id="feComposite2993"
         in2="SourceGraphic"
         in="flood"
         operator="in"
         result="composite1" />
      <feGaussianBlur
         id="feGaussianBlur2995"
         in="composite"
         stdDeviation="2"
         result="blur" />
      <feOffset
         id="feOffset2997"
         dx="2"
         dy="3"
         result="offset" />
      <feComposite
         id="feComposite2999"
         in2="offset"
         in="SourceGraphic"
         operator="over"
         result="composite2" />
    </filter>
  </defs>
  <sodipodi:namedview
     id="base"
     pagecolor="#ffffff"
     bordercolor="#666666"
     borderopacity="1.0"
     inkscape:pageopacity="0.0"
     inkscape:pageshadow="2"
     inkscape:zoom="1"
     inkscape:cx="43.80896"
     inkscape:cy="43.865545"
     inkscape:document-units="px"
     inkscape:current-layer="layer1"
     showgrid="false"
     fit-margin-top="0"
     fit-margin-left="0"
     fit-margin-right="0"
     fit-margin-bottom="0"
     inkscape:window-width="639"
     inkscape:window-height="406"
     inkscape:window-x="65"
     inkscape:window-y="24"
     inkscape:window-maximized="0" />
  <metadata
     id="metadata3446">
    <rdf:RDF>
      <cc:Work
         rdf:about="">
        <dc:format>image/svg+xml</dc:format>
        <dc:type
           rdf:resource="http://purl.org/dc/dcmitype/StillImage" />
        <dc:title />
      </cc:Work>
    </rdf:RDF>
  </metadata>
  <g
     inkscape:label="Layer 1"
     inkscape:groupmode="layer"
     id="layer1"
     transform="translate(-331.19104,-466.22773)">
    <g
       style="display:block;filter:url(#filter2989)"
       id="bbishop"
       transform="translate(136.06819,472.23087)">
      <path
         inkscape:connector-curvature="0"
         style="fill:#000000"
         d="m 250.12285,83.281382 c -0.49931,2.032665 -1.10553,3.441252 -1.81869,4.225761 -0.71326,0.784548 -1.65826,1.604739 -2.83502,2.460572 -1.28382,0.891535 -2.79939,1.658242 -4.54672,2.300122 -1.7474,0.606237 -3.6909,0.748866 -5.8305,0.427926 l -15.0309,-2.086149 c -0.60626,-0.0713 -1.159,-0.0713 -1.65823,0 -0.4636,0.07134 -0.90935,0.106987 -1.33726,0.106987 -0.74889,0 -1.71172,0.178311 -2.8885,0.534893 -1.14117,0.32096 -2.03266,0.802389 -2.67454,1.444269 l -5.1886,-8.505045 c 0.64186,-0.713184 1.21243,-1.212435 1.7117,-1.497752 0.49923,-0.285258 1.08763,-0.588377 1.76519,-0.909336 2.06829,-0.9628 4.27925,-1.551216 6.63285,-1.765189 0.99848,-0.0713 1.97914,-0.08913 2.942,-0.0535 0.96282,0.0357 1.9613,3.9e-5 2.99549,-0.106967 1.92564,0.320959 3.8513,0.624078 5.77701,0.909336 1.96129,0.249655 3.92263,0.517092 5.88399,0.802369 2.13959,2e-5 3.58384,-0.213953 4.33274,-0.641899 0.39223,-0.213934 1.01629,-0.606198 1.87218,-1.176793 0.85581,-0.570555 1.71167,-1.408567 2.56756,-2.514075 -1.89006,-0.213934 -3.81572,-0.570536 -5.777,-1.069806 -1.96138,-0.534893 -3.69091,-1.087627 -5.18862,-1.658222 l 5.56305,-13.800632 c -2.78156,-1.60468 -4.72506,-2.888459 -5.83049,-3.851337 -1.10552,-0.998443 -1.9792,-2.139574 -2.62106,-3.423411 -0.92719,-1.640323 -1.53343,-3.227221 -1.81869,-4.760674 -0.24965,-1.533356 -0.35662,-2.906281 -0.32094,-4.118795 0.0356,-2.139573 0.53488,-4.493158 1.49775,-7.060775 0.99847,-2.603162 2.8528,-4.921086 5.56305,-6.953809 2.24656,-1.711628 4.43969,-3.476836 6.57936,-5.295587 2.13958,-1.818614 4.26139,-3.940405 6.3654,-6.365413 -2.63893,-1.355006 -3.95837,-3.512479 -3.95831,-6.472379 -6e-5,-1.996906 0.69533,-3.7086112 2.08613,-5.1351173 1.42637,-1.4263301 3.15592,-2.1395343 5.18862,-2.1396321 1.99693,9.78e-5 3.70863,0.713302 5.13512,2.1396321 1.42635,1.4265061 2.13957,3.1382113 2.13963,5.1351173 -6e-5,2.924238 -1.3195,5.081711 -3.95832,6.472379 2.06824,2.425008 4.15439,4.546799 6.25842,6.365413 2.13955,1.818751 4.36835,3.583959 6.68635,5.295587 2.67447,2.032723 4.49314,4.350647 5.45606,6.953809 0.96276,2.567617 1.47983,4.921202 1.55124,7.060775 -8e-5,1.212514 -0.12489,2.585439 -0.37445,4.118795 -0.24969,1.533453 -0.82027,3.120351 -1.7117,4.760674 -0.71328,1.283837 -1.62262,2.424968 -2.72803,3.423411 -1.06989,0.962878 -2.97772,2.246657 -5.72351,3.851337 l 5.56304,13.800632 c -1.56914,0.570595 -3.33433,1.123329 -5.29559,1.658222 -1.9614,0.49927 -3.85139,0.855872 -5.67003,1.069806 0.82013,1.105508 1.65815,1.94352 2.51408,2.514075 0.85577,0.570595 1.49767,0.962859 1.92566,1.176793 0.7488,0.427946 2.19305,0.641919 4.33276,0.641899 1.92558,-0.285277 3.85126,-0.552714 5.777,-0.802369 1.96124,-0.285258 3.92258,-0.588377 5.88398,-0.909336 0.96276,0.107006 1.92558,0.142668 2.88852,0.106967 0.99841,-0.03562 2.01473,-0.0178 3.04897,0.0535 2.28218,0.213973 4.49314,0.802389 6.63285,1.765189 0.6418,0.320959 1.21238,0.624078 1.71171,0.909336 0.53481,0.285317 1.12321,0.784568 1.7652,1.497752 l -5.2421,8.505045 c -0.64198,-0.64188 -1.55133,-1.123309 -2.72803,-1.444269 -1.14123,-0.356582 -2.0684,-0.534893 -2.78153,-0.534893 -0.46367,0 -0.94508,-0.03564 -1.44425,-0.106987 -0.46367,-0.0713 -0.99858,-0.0713 -1.60472,0 l -14.97742,2.086149 c -2.13969,0.32094 -4.1367,0.178311 -5.99097,-0.427926 -1.81875,-0.606218 -3.31649,-1.408587 -4.49322,-2.407089 -1.17687,-0.96282 -2.12187,-1.78301 -2.83501,-2.460591 -0.67762,-0.713185 -1.24818,-2.08611 -1.71171,-4.118775"
         id="bbishop-outer1" />
      <path
         inkscape:connector-curvature="0"
         style="fill:#ffffff"
         d="m 264.35139,73.118115 -2.2466,-5.456057 c -3.63744,-0.784489 -7.63143,-1.176753 -11.98194,-1.176792 -4.31498,3.9e-5 -8.27329,0.392303 -11.87497,1.176792 l -2.2466,5.402574 c 4.42185,-1.105449 9.12904,-1.658183 14.12157,-1.658222 4.92109,3.9e-5 9.66394,0.570614 14.22854,1.711705"
         id="bbishop-inner1" />
      <path
         inkscape:connector-curvature="0"
         style="fill:#ffffff"
         d="m 259.85817,62.099015 -1.55123,-3.744351 0,-1.444249 c -2.71027,-0.392225 -5.4383,-0.588357 -8.18409,-0.588397 -2.6746,4e-5 -5.38479,0.196172 -8.1306,0.588397 l -0.0535,1.444249 -1.44425,3.744351 c 3.0311,-0.534854 6.24054,-0.802311 9.62835,-0.802369 3.42335,5.8e-5 6.66845,0.267515 9.73532,0.802369"
         id="bbishop-inner2" />
      <path
         inkscape:connector-curvature="0"
         style="fill:#ffffff"
         d="m 257.986,82.318543 c -1.42649,-1.069787 -2.85292,-2.763671 -4.27927,-5.081634 l -1.7117,0 c -6e-5,1.747388 0.41002,3.441272 1.23027,5.081634 l 4.7607,0"
         id="bbishop-inner3" />
      <path
         inkscape:connector-curvature="0"
         style="fill:#ffffff"
         d="m 246.9669,82.318543 c 0.82013,-1.747349 1.23021,-3.441213 1.23027,-5.081634 l -1.7117,0 c -1.39081,2.282301 -2.83506,3.976185 -4.33275,5.081634 l 4.81418,0"
         id="bbishop-inner4" />
      <path
         inkscape:connector-curvature="0"
         style="fill:#ffffff"
         d="m 248.14369,43.484226 0,4.546701 c -6e-5,1.3195 0.65966,1.979221 1.97916,1.979162 l 0,0 c 1.31938,5.9e-5 1.9791,-0.659662 1.97916,-1.979162 l 0,-4.600204 4.81416,0 c 1.24806,5.9e-5 1.87212,-0.641821 1.87218,-1.925659 l 0,0 c -6e-5,-1.28372 -0.62412,-1.9256 -1.87218,-1.925678 l -4.81416,0 0,-4.814177 c -6e-5,-1.319364 -0.65978,-1.979084 -1.97916,-1.979143 l 0,0 c -1.3195,5.9e-5 -1.97922,0.659779 -1.97916,1.979143 l 0,4.814177 -4.70719,0 c -1.24818,7.8e-5 -1.87224,0.641958 -1.87218,1.925678 l 0,0 c -6e-5,1.283838 0.624,1.925718 1.87218,1.925659 l 4.70719,0.0535"
         id="bbishop-inner5" />
    </g>
  </g>
</svg>
