<?xml version="1.0" encoding="UTF-8" standalone="no"?>
<!-- Created with Inkscape (http://www.inkscape.org/) -->

<svg
   xmlns:dc="http://purl.org/dc/elements/1.1/"
   xmlns:cc="http://creativecommons.org/ns#"
   xmlns:rdf="http://www.w3.org/1999/02/22-rdf-syntax-ns#"
   xmlns:svg="http://www.w3.org/2000/svg"
   xmlns="http://www.w3.org/2000/svg"
   xmlns:sodipodi="http://sodipodi.sourceforge.net/DTD/sodipodi-0.dtd"
   xmlns:inkscape="http://www.inkscape.org/namespaces/inkscape"
   width="110"
   height="110"
   id="svg3376"
   version="1.1"
   inkscape:version="0.48.3.1 r9886"
   sodipodi:docname="bn.svg">
  <defs
     id="defs3378" />
  <sodipodi:namedview
     id="base"
     pagecolor="#ffffff"
     bordercolor="#666666"
     borderopacity="1.0"
     inkscape:pageopacity="0.0"
     inkscape:pageshadow="2"
     inkscape:zoom="0.35"
     inkscape:cx="-114.42584"
     inkscape:cy="44.985768"
     inkscape:document-units="px"
     inkscape:current-layer="layer1"
     showgrid="false"
     fit-margin-top="0"
     fit-margin-left="0"
     fit-margin-right="0"
     fit-margin-bottom="0"
     inkscape:window-width="639"
     inkscape:window-height="406"
     inkscape:window-x="65"
     inkscape:window-y="24"
     inkscape:window-maximized="0" />
  <metadata
     id="metadata3381">
    <rdf:RDF>
      <cc:Work
         rdf:about="">
        <dc:format>image/svg+xml</dc:format>
        <dc:type
           rdf:resource="http://purl.org/dc/dcmitype/StillImage" />
        <dc:title />
      </cc:Work>
    </rdf:RDF>
  </metadata>
  <g
     inkscape:label="Layer 1"
     inkscape:groupmode="layer"
     id="layer1"
     transform="translate(-329.42584,-467.34795)">
    <g
       style="display:block"
       id="bknight"
       inkscape:label="#bknight"
       transform="translate(233.79866,473.94257)">
      <path
         inkscape:connector-curvature="0"
         style="fill:#000000"
         d="m 153.51567,13.475875 c 5.59865,0.3567 10.78725,1.800949 15.56582,4.332767 4.77844,2.531974 8.84375,5.777075 12.19592,9.735321 2.3535,2.78159 4.56446,6.133677 6.63284,10.05626 2.1039,3.922721 3.77994,8.077177 5.02815,12.463369 1.42632,5.099494 2.31783,10.466405 2.67453,16.100734 0.39217,5.598725 0.5883,10.787325 0.58842,15.56582 l 0,11.66098 c -1.2e-4,2e-5 -2.78163,2e-5 -8.34458,0 -5.52746,2e-5 -12.71306,2e-5 -21.55679,0 l -35.89233,0 c -0.32098,2e-5 -0.48145,-0.873654 -0.48141,-2.621042 0.0356,-1.747348 0.16043,-3.155935 0.37444,-4.22578 0.14259,-0.855834 0.48137,-2.068288 1.01632,-3.637365 0.53488,-1.569037 1.42637,-3.476875 2.67453,-5.723513 0.57053,-1.141111 1.92564,-2.799333 4.06531,-4.974647 2.13959,-2.210917 4.60016,-4.760654 7.38173,-7.649192 1.60466,-1.640342 2.85278,-3.70865 3.74435,-6.204923 0.92712,-2.496195 1.31939,-4.760635 1.1768,-6.793339 -1.31948,1.069865 -2.76375,1.943559 -4.33275,2.621061 -7.56009,2.710247 -13.03396,6.632889 -16.42167,11.767967 -0.24966,0.320979 -1.05203,1.765228 -2.40709,4.332747 -0.71325,1.355143 -1.31948,2.28232 -1.81869,2.781532 -0.67759,0.677581 -1.65825,1.052024 -2.94201,1.123309 -1.997,0.107006 -3.54823,-0.855833 -4.65368,-2.888498 -1.49777,0.427946 -2.83504,0.606256 -4.01181,0.534893 -1.997,-0.748827 -3.44127,-1.551197 -4.33277,-2.407089 -1.81869,-1.818633 -3.01332,-3.637325 -3.58388,-5.456056 -0.53491,-1.818634 -0.80237,-3.779975 -0.80235,-5.883983 -2e-5,-2.995446 1.85434,-6.953751 5.56304,-11.874953 4.35055,-5.669971 6.6685,-9.984878 6.95379,-12.944779 -2e-5,-1.283701 0.12479,-2.72795 0.37445,-4.332748 0.21393,-1.105409 0.6597,-2.175216 1.33726,-3.209457 0.46357,-0.713126 0.76669,-1.194556 0.90936,-1.44425 0.17827,-0.285199 0.48139,-0.695304 0.90933,-1.230295 0.32092,-0.427829 0.58838,-0.748788 0.80237,-0.96282 0.21393,-0.249557 0.48139,-0.570497 0.80235,-0.962839 0.39225,-0.463511 0.8915,-0.998424 1.49775,-1.60472 -1.89003,-5.206362 -2.65674,-10.5732541 -2.3001,-16.100733 7.0964,2.5319941 13.05171,6.5081395 17.86592,11.928436 1.17676,-4.029531 3.49468,-7.2924721 6.95381,-9.788804 2.85278,1.9970812 5.11722,4.635964 6.79332,7.916629"
         id="bknight-outer" />
      <path
         inkscape:connector-curvature="0"
         style="fill:#ffffff"
         d="m 122.00959,67.715542 c 0.14263,-0.320901 0.37442,-0.802311 0.69538,-1.444249 0.6062,-1.497694 0.90932,-2.389209 0.90936,-2.674526 -0.0714,-0.998462 -0.58844,-1.497713 -1.55124,-1.497752 -0.71324,3.9e-5 -1.55125,1.016362 -2.51407,3.048968 -0.14267,0.285337 -0.35663,0.534952 -0.64188,0.748886 -0.96286,0.998521 -0.82023,1.836553 0.42792,2.514056 l 0,0 c 1.14111,0.6776 2.03263,0.445806 2.67453,-0.695383"
         id="bknight-inner1" />
      <path
         inkscape:connector-curvature="0"
         style="fill:#ffffff"
         d="m 153.56918,47.870457 c 2.49617,-3.280704 3.72645,-6.935909 3.69086,-10.965616 -0.1427,-1.176715 -0.82027,-1.765111 -2.03266,-1.765189 -1.64044,7.8e-5 -2.28232,0.606295 -1.92566,1.818692 0.10693,1.961399 -0.0892,3.58394 -0.5884,4.86766 -0.82025,2.032704 -1.7296,3.548278 -2.72803,4.546721 -0.53497,1.069864 -0.21403,1.854393 0.96282,2.353585 l 0,0 c 1.1411,0.534972 2.01477,0.249694 2.62107,-0.855853"
         id="bknight-inner2" />
      <path
         inkscape:connector-curvature="0"
         style="fill:#ffffff"
         d="m 139.60807,21.766946 c -0.17835,-1.283681 -0.14268,-2.674447 0.10699,-4.172277 -2.13969,0.428024 -4.1545,1.426506 -6.04447,2.995485 -1.14117,0.606315 -1.40863,1.444327 -0.80235,2.514075 0.60618,1.105546 1.44421,1.283857 2.51405,0.534893 0.74883,-0.392166 1.42639,-0.748788 2.03265,-1.069806 0.64186,-0.356524 1.3729,-0.62398 2.19313,-0.80237"
         id="bknight-inner3" />
      <path
         inkscape:connector-curvature="0"
         style="fill:#ffffff"
         d="m 189.72895,89.593292 c -0.0358,1.9e-5 -1e-4,-0.96282 0.10698,-2.888499 0.10689,-1.961321 0.16038,-4.065291 0.16047,-6.311929 0.0356,-4.457536 0.0356,-9.05774 0,-13.800612 -0.0358,-4.778476 -0.67764,-9.539149 -1.92566,-14.282061 -1.21255,-4.564483 -2.54983,-8.451483 -4.01182,-11.66098 -1.46217,-3.245041 -3.04905,-6.044394 -4.76068,-8.398058 -2.56763,-3.851259 -6.06237,-7.114201 -10.48418,-9.788824 -4.422,-2.674447 -9.04002,-4.421815 -13.85414,-5.242103 0.14259,0.820288 0.17825,1.6583 0.10699,2.514075 -0.0357,0.855931 -0.0179,1.676122 0.0535,2.460572 3.459,1.17689 6.72194,2.638961 9.78881,4.38625 3.06673,1.747446 5.31334,3.637443 6.73983,5.67003 1.71163,2.353664 3.29853,5.153017 4.76069,8.398058 1.462,3.209497 2.79926,7.096497 4.01181,11.66098 1.21238,4.742912 1.83644,9.503585 1.87218,14.282061 0.0356,4.742872 0.0534,9.343076 0.0535,13.800612 -8e-5,2.246638 -0.0536,4.350608 -0.16047,6.311929 -0.10706,1.925679 -0.10706,2.888518 0,2.888499 l 7.54221,0"
         id="bknight-inner4" />
      <path
         inkscape:connector-curvature="0"
         style="fill:#ffffff"
         d="m 117.40938,58.194194 c 1.03415,-0.713165 1.14112,-1.569018 0.32094,-2.567558 -0.85587,-0.820152 -1.80087,-0.891476 -2.83499,-0.213973 -2.17532,1.426467 -3.33429,3.298642 -3.47692,5.616546 0.0357,1.176832 0.73103,1.729566 2.08615,1.658202 1.28376,-0.106927 1.90782,-0.766648 1.87218,-1.979162 0.28526,-1.141091 0.96282,-1.979103 2.03264,-2.514055"
         id="bknight-inner5" />
      <path
         inkscape:connector-curvature="0"
         style="fill:#ffffff"
         d="m 130.88908,31.55577 c 0.78448,-0.392186 1.17675,-0.588318 1.17679,-0.588396 1.06979,-0.427848 1.40855,-1.212396 1.01632,-2.353605 -0.42796,-1.069728 -1.24816,-1.42633 -2.46057,-1.069806 -4.20798,1.533473 -7.1143,4.350647 -8.719,8.451541 -0.24965,1.176871 0.17827,1.979221 1.28378,2.407089 1.10545,0.356661 1.85432,-0.0356 2.2466,-1.176793 0.28526,-0.606159 0.49923,-0.998423 0.6419,-1.176812 0.39222,0.321018 0.90932,0.534991 1.55123,0.641899 2.17526,0.356681 3.4412,-0.606159 3.79784,-2.888498 0.10695,-0.78447 -0.0713,-1.533336 -0.53489,-2.246619"
         id="bknight-inner6" />
    </g>
  </g>
</svg>
