<?xml version="1.0" encoding="UTF-8" standalone="no"?>
<!-- Created with Inkscape (http://www.inkscape.org/) -->

<svg
   xmlns:dc="http://purl.org/dc/elements/1.1/"
   xmlns:cc="http://creativecommons.org/ns#"
   xmlns:rdf="http://www.w3.org/1999/02/22-rdf-syntax-ns#"
   xmlns:svg="http://www.w3.org/2000/svg"
   xmlns="http://www.w3.org/2000/svg"
   xmlns:sodipodi="http://sodipodi.sourceforge.net/DTD/sodipodi-0.dtd"
   xmlns:inkscape="http://www.inkscape.org/namespaces/inkscape"
   width="110"
   height="110"
   id="svg3322"
   version="1.1"
   inkscape:version="0.48.3.1 r9886"
   sodipodi:docname="bp.svg">
  <defs
     id="defs3324">
    <filter
       id="filter2984"
       style="color-interpolation-filters:sRGB;"
       inkscape:label="Drop Shadow">
      <feFlood
         id="feFlood2986"
         flood-opacity="0.5"
         flood-color="rgb(0,0,0)"
         result="flood" />
      <feComposite
         id="feComposite2988"
         in2="SourceGraphic"
         in="flood"
         operator="in"
         result="composite1" />
      <feGaussianBlur
         id="feGaussianBlur2990"
         in="composite"
         stdDeviation="2"
         result="blur" />
      <feOffset
         id="feOffset2992"
         dx="2"
         dy="3"
         result="offset" />
      <feComposite
         id="feComposite2994"
         in2="offset"
         in="SourceGraphic"
         operator="over"
         result="composite2" />
    </filter>
  </defs>
  <sodipodi:namedview
     id="base"
     pagecolor="#ffffff"
     bordercolor="#666666"
     borderopacity="1.0"
     inkscape:pageopacity="0.0"
     inkscape:pageshadow="2"
     inkscape:zoom="0.35"
     inkscape:cx="-129.00208"
     inkscape:cy="43.782226"
     inkscape:document-units="px"
     inkscape:current-layer="layer1"
     showgrid="false"
     fit-margin-top="0"
     fit-margin-left="0"
     fit-margin-right="0"
     fit-margin-bottom="0"
     inkscape:window-width="639"
     inkscape:window-height="406"
     inkscape:window-x="65"
     inkscape:window-y="24"
     inkscape:window-maximized="0" />
  <metadata
     id="metadata3327">
    <rdf:RDF>
      <cc:Work
         rdf:about="">
        <dc:format>image/svg+xml</dc:format>
        <dc:type
           rdf:resource="http://purl.org/dc/dcmitype/StillImage" />
        <dc:title />
      </cc:Work>
    </rdf:RDF>
  </metadata>
  <g
     inkscape:label="Layer 1"
     inkscape:groupmode="layer"
     id="layer1"
     transform="translate(-344.00208,-466.14442)">
    <g
       style="display:block;filter:url(#filter2984)"
       id="bpawn"
       inkscape:label="#g1730"
       transform="translate(348.0043,471.64248)">
      <path
         inkscape:connector-curvature="0"
         style="fill:#000000"
         d="m 51.02453,93.284159 -28.885042,0 c -1.426447,-3.56604 -2.139651,-7.29257 -2.139632,-11.179589 -1.9e-5,-6.597168 1.872156,-12.516813 5.616546,-17.758936 3.744312,-5.242065 8.558489,-8.986416 14.442512,-11.233073 -2.531936,-1.176734 -4.600243,-2.941943 -6.204943,-5.295587 -1.569096,-2.389189 -2.353625,-5.081575 -2.353585,-8.077118 -4e-5,-3.744273 1.248078,-6.989393 3.744351,-9.735321 2.496195,-2.745791 5.563004,-4.33267 9.200427,-4.760674 -2.888557,-2.175216 -4.332806,-5.045893 -4.332767,-8.612031 -3.9e-5,-2.995387 1.051946,-5.562946 3.155955,-7.7026757 2.139593,-2.1395343 4.724973,-3.2093405 7.756178,-3.2094383 2.995426,9.78e-5 5.562985,1.069904 7.702676,3.2094383 2.139553,2.1397297 3.209379,4.7072887 3.209438,7.7026757 -5.9e-5,3.566138 -1.444308,6.436815 -4.332748,8.612031 3.637306,0.428004 6.704116,2.014883 9.200408,4.760674 2.496176,2.745928 3.744293,5.991048 3.744371,9.735321 -7.8e-5,2.995543 -0.820269,5.687929 -2.460591,8.077118 -1.604798,2.353644 -3.655265,4.118853 -6.15144,5.295587 5.883924,2.246657 10.698082,5.991008 14.442511,11.233073 3.744273,5.242123 5.616449,11.161768 5.616547,17.758936 -9.8e-5,3.851357 -0.695462,7.577887 -2.086149,11.179589 l -28.885023,0"
         id="bpawn-outer" />
    </g>
  </g>
</svg>
