<?xml version="1.0" encoding="UTF-8" standalone="no"?>
<!-- Created with Inkscape (http://www.inkscape.org/) -->

<svg
   xmlns:dc="http://purl.org/dc/elements/1.1/"
   xmlns:cc="http://creativecommons.org/ns#"
   xmlns:rdf="http://www.w3.org/1999/02/22-rdf-syntax-ns#"
   xmlns:svg="http://www.w3.org/2000/svg"
   xmlns="http://www.w3.org/2000/svg"
   xmlns:sodipodi="http://sodipodi.sourceforge.net/DTD/sodipodi-0.dtd"
   xmlns:inkscape="http://www.inkscape.org/namespaces/inkscape"
   width="110"
   height="110"
   id="svg3645"
   version="1.1"
   inkscape:version="0.48.3.1 r9886"
   sodipodi:docname="bq.svg">
  <defs
     id="defs3647">
    <filter
       id="filter2992"
       style="color-interpolation-filters:sRGB;"
       inkscape:label="Drop Shadow">
      <feFlood
         id="feFlood2994"
         flood-opacity="0.5"
         flood-color="rgb(0,0,0)"
         result="flood" />
      <feComposite
         id="feComposite2996"
         in2="SourceGraphic"
         in="flood"
         operator="in"
         result="composite1" />
      <feGaussianBlur
         id="feGaussianBlur2998"
         in="composite"
         stdDeviation="2"
         result="blur" />
      <feOffset
         id="feOffset3000"
         dx="2"
         dy="3"
         result="offset" />
      <feComposite
         id="feComposite3002"
         in2="offset"
         in="SourceGraphic"
         operator="over"
         result="composite2" />
    </filter>
  </defs>
  <sodipodi:namedview
     id="base"
     pagecolor="#ffffff"
     bordercolor="#666666"
     borderopacity="1.0"
     inkscape:pageopacity="0.0"
     inkscape:pageshadow="2"
     inkscape:zoom="0.35"
     inkscape:cx="-110.52102"
     inkscape:cy="45.788123"
     inkscape:document-units="px"
     inkscape:current-layer="layer1"
     showgrid="false"
     fit-margin-top="0"
     fit-margin-left="0"
     fit-margin-right="0"
     fit-margin-bottom="0"
     inkscape:window-width="639"
     inkscape:window-height="406"
     inkscape:window-x="65"
     inkscape:window-y="24"
     inkscape:window-maximized="0" />
  <metadata
     id="metadata3650">
    <rdf:RDF>
      <cc:Work
         rdf:about="">
        <dc:format>image/svg+xml</dc:format>
        <dc:type
           rdf:resource="http://purl.org/dc/dcmitype/StillImage" />
        <dc:title />
      </cc:Work>
    </rdf:RDF>
  </metadata>
  <g
     inkscape:label="Layer 1"
     inkscape:groupmode="layer"
     id="layer1"
     transform="translate(-325.52102,-468.1503)">
    <g
       style="display:block;filter:url(#filter2992)"
       id="bqueen"
       transform="translate(-170.51675,474.42399)">
      <path
         inkscape:connector-curvature="0"
         style="fill:#000000"
         d="m 593.24201,26.099714 c -2.03274,7.8e-5 -3.76227,-0.695305 -5.1886,-2.086149 -1.4265,-1.42633 -2.13973,-3.155877 -2.13963,-5.1886 -10e-5,-1.996906 0.71313,-3.708611 2.13963,-5.135117 1.42633,-1.461992 3.15586,-2.193038 5.1886,-2.193135 1.99691,9.7e-5 3.70861,0.731143 5.13512,2.193135 1.42633,1.426506 2.13953,3.138211 2.13963,5.135117 -10e-5,2.032723 -0.7133,3.76227 -2.13963,5.1886 -1.42651,1.390844 -3.13821,2.086227 -5.13512,2.086149"
         id="bqueen-outer1" />
      <path
         inkscape:connector-curvature="0"
         style="fill:#000000"
         d="m 508.83354,26.099714 c -2.03266,7.8e-5 -3.76219,-0.695305 -5.18862,-2.086149 -1.39076,-1.42633 -2.08615,-3.155877 -2.08613,-5.1886 -2e-5,-1.996906 0.69537,-3.708611 2.08613,-5.135117 1.42643,-1.461992 3.15596,-2.193038 5.18862,-2.193135 2.03263,9.7e-5 3.76217,0.731143 5.1886,2.193135 1.42641,1.426506 2.13962,3.138211 2.13963,5.135117 -1e-5,2.032723 -0.71322,3.76227 -2.13963,5.1886 -1.42643,1.390844 -3.15597,2.086227 -5.1886,2.086149"
         id="bqueen-outer2" />
      <path
         inkscape:connector-curvature="0"
         style="fill:#000000"
         d="m 573.45043,20.215711 c -2.03272,9.8e-5 -3.76227,-0.695285 -5.18862,-2.086129 -1.39082,-1.42633 -2.08621,-3.155877 -2.08613,-5.18862 -8e-5,-1.996886 0.69531,-3.7085913 2.08613,-5.135117 1.42635,-1.4263105 3.1559,-2.1395147 5.18862,-2.139632 2.03257,1.173e-4 3.76209,0.7133215 5.1886,2.139632 1.42633,1.4265257 2.13955,3.138231 2.13963,5.135117 -8e-5,2.032743 -0.7133,3.76229 -2.13963,5.18862 -1.42651,1.390844 -3.15603,2.086227 -5.1886,2.086129"
         id="bqueen-outer3" />
      <path
         inkscape:connector-curvature="0"
         style="fill:#000000"
         d="m 528.51816,20.215711 c -2.03269,9.8e-5 -3.76221,-0.695285 -5.18862,-2.086129 -1.42645,-1.42633 -2.13965,-3.155877 -2.13963,-5.18862 -2e-5,-1.996886 0.71318,-3.7085913 2.13963,-5.135117 1.42641,-1.4263105 3.15593,-2.1395147 5.18862,-2.139632 1.99694,1.173e-4 3.70865,0.7133215 5.13511,2.139632 1.42637,1.4265257 2.1396,3.138231 2.13964,5.135117 -4e-5,2.032743 -0.71327,3.76229 -2.13964,5.18862 -1.42646,1.390844 -3.13817,2.086227 -5.13511,2.086129"
         id="bqueen-outer4" />
      <path
         inkscape:connector-curvature="0"
         style="fill:#000000"
         d="m 583.93462,89.111862 c -1.74745,1.533434 -5.67011,2.817213 -11.76797,3.851338 -6.09803,1.034183 -13.12315,1.551255 -21.07538,1.551236 -8.095,1.9e-5 -15.20926,-0.534894 -21.34284,-1.60472 -6.13363,-1.069806 -10.00279,-2.407069 -11.60749,-4.011807 l 3.36992,-12.837792 -1.49775,-8.398059 -4.70719,-8.184085 -4.54672,-33.271293 2.62106,-1.016322 14.65647,24.712764 0.32096,-29.419955 3.63736,-0.64188 11.17957,29.580406 5.99097,-31.827024 3.69087,0 5.99097,31.720037 11.0726,-29.473419 3.69087,0.64188 0.32094,29.419955 14.70997,-24.766248 2.51407,1.176793 -4.43973,33.110803 -4.7607,8.184105 -1.49773,8.505025 3.4769,12.998262"
         id="bqueen-outer5" />
      <path
         inkscape:connector-curvature="0"
         style="fill:#ffffff"
         d="m 578.7995,87.400157 -1.60472,-6.31191 c -6.95389,-1.6047 -15.69071,-2.407049 -26.2105,-2.407089 -10.41292,4e-5 -19.11408,0.802389 -26.10351,2.407089 l -1.7117,6.365413 c 6.77548,-2.068289 16.06503,-3.102452 27.86872,-3.102472 5.66995,2e-5 10.92987,0.285298 15.77977,0.855853 4.84976,0.570595 8.84373,1.30162 11.98194,2.193116"
         id="bqueen-inner1" />
      <path
         inkscape:connector-curvature="0"
         style="fill:#ffffff"
         d="m 577.40873,71.40641 c -6.5616,-1.818653 -15.29842,-2.72799 -26.21047,-2.728029 -10.9835,3.9e-5 -19.82731,0.927216 -26.53144,2.781532 l 0.80235,5.402573 c 6.73982,-1.747348 15.31617,-2.621022 25.72909,-2.621062 10.37714,4e-5 18.82868,0.855892 25.35462,2.567559 l 0.85585,-5.402573"
         id="bqueen-inner2" />
      <path
         inkscape:connector-curvature="0"
         style="fill:#000000"
         d="m 550.98428,17.541185 c -2.0327,7.9e-5 -3.76223,-0.713126 -5.1886,-2.139632 -1.3908,-1.42633 -2.08618,-3.155876 -2.08615,-5.18862 -3e-5,-1.9968851 0.69535,-3.7085907 2.08615,-5.1351164 1.42637,-1.4263105 3.1559,-2.1395147 5.1886,-2.139632 1.99695,1.173e-4 3.70865,0.7133215 5.13512,2.139632 1.46203,1.4265257 2.19306,3.1382313 2.19314,5.1351164 -8e-5,2.032744 -0.73111,3.76229 -2.19314,5.18862 -1.42647,1.426506 -3.13817,2.139711 -5.13512,2.139632"
         id="bqueen-outer6" />
      <path
         inkscape:connector-curvature="0"
         style="fill:#ffffff"
         d="m 581.15311,61.831559 c -2.95993,-1.069767 -7.1322,-1.943442 -12.51686,-2.621042 -5.34915,-0.713165 -11.26879,-1.069767 -17.75895,-1.069826 -6.34761,5.9e-5 -12.16027,0.33882 -17.438,1.016323 -5.27778,0.641938 -9.43224,1.497791 -12.46335,2.567558 l 2.67455,4.86768 c 2.99544,-0.891476 6.88244,-1.533375 11.66098,-1.925678 4.77847,-0.392226 10.00273,-0.588358 15.6728,-0.588397 5.66997,3.9e-5 10.91206,0.196171 15.72629,0.588397 4.8141,0.392303 8.71892,1.052024 11.71451,1.979162 l 2.72803,-4.814177"
         id="bqueen-inner3" />
    </g>
  </g>
</svg>
