<?xml version="1.0" encoding="UTF-8" standalone="no"?>
<!-- Created with Inkscape (http://www.inkscape.org/) -->

<svg
   xmlns:dc="http://purl.org/dc/elements/1.1/"
   xmlns:cc="http://creativecommons.org/ns#"
   xmlns:rdf="http://www.w3.org/1999/02/22-rdf-syntax-ns#"
   xmlns:svg="http://www.w3.org/2000/svg"
   xmlns="http://www.w3.org/2000/svg"
   xmlns:sodipodi="http://sodipodi.sourceforge.net/DTD/sodipodi-0.dtd"
   xmlns:inkscape="http://www.inkscape.org/namespaces/inkscape"
   width="110"
   height="110"
   id="svg3207"
   version="1.1"
   inkscape:version="0.48.3.1 r9886"
   sodipodi:docname="wk.svg">
  <defs
     id="defs3209">
    <filter
       id="filter2991"
       style="color-interpolation-filters:sRGB;"
       inkscape:label="Drop Shadow">
      <feFlood
         id="feFlood2993"
         flood-opacity="0.5"
         flood-color="rgb(0,0,0)"
         result="flood" />
      <feComposite
         id="feComposite2995"
         in2="SourceGraphic"
         in="flood"
         operator="in"
         result="composite1" />
      <feGaussianBlur
         id="feGaussianBlur2997"
         in="composite"
         stdDeviation="2"
         result="blur" />
      <feOffset
         id="feOffset2999"
         dx="4"
         dy="4"
         result="offset" />
      <feComposite
         id="feComposite3001"
         in2="offset"
         in="SourceGraphic"
         operator="over"
         result="composite2" />
    </filter>
  </defs>
  <sodipodi:namedview
     id="base"
     pagecolor="#ffffff"
     bordercolor="#666666"
     borderopacity="1.0"
     inkscape:pageopacity="0.0"
     inkscape:pageshadow="2"
     inkscape:zoom="0.35"
     inkscape:cx="-113.90863"
     inkscape:cy="45.627657"
     inkscape:document-units="px"
     inkscape:current-layer="layer1"
     showgrid="false"
     fit-margin-top="0"
     fit-margin-left="0"
     fit-margin-right="0"
     fit-margin-bottom="0"
     inkscape:window-width="639"
     inkscape:window-height="406"
     inkscape:window-x="959"
     inkscape:window-y="24"
     inkscape:window-maximized="0" />
  <metadata
     id="metadata3212">
    <rdf:RDF>
      <cc:Work
         rdf:about="">
        <dc:format>image/svg+xml</dc:format>
        <dc:type
           rdf:resource="http://purl.org/dc/dcmitype/StillImage" />
        <dc:title />
      </cc:Work>
    </rdf:RDF>
  </metadata>
  <g
     inkscape:label="Layer 1"
     inkscape:groupmode="layer"
     id="layer1"
     transform="translate(-328.90863,-467.98984)">
    <g
       id="wking"
       inkscape:label="#g1675"
       transform="translate(-67.728906,273.31865)"
       style="filter:url(#filter2991)">
      <path
         inkscape:connector-curvature="0"
         style="fill:#000000"
         d="m 421.64075,276.52359 -1.76521,-10.00278 c -0.0357,4e-5 -0.0892,-0.0713 -0.16047,-0.21397 -0.17831,-0.24958 -0.69541,-0.57054 -1.55124,-0.96284 -0.82021,-0.42789 -1.78303,-1.14109 -2.8885,-2.13963 -1.56907,-1.31939 -2.79937,-2.38921 -3.69087,-3.20944 -0.85585,-0.82015 -1.6404,-1.71167 -2.35358,-2.67455 -2.17531,-2.99542 -3.38777,-6.61497 -3.63738,-10.85863 -0.35661,-4.10089 1.3016,-8.18402 4.97464,-12.24939 3.70869,-4.06524 8.71898,-5.97307 15.03093,-5.72352 2.35355,0.14273 5.11724,0.71329 8.29107,1.71171 1.03411,0.428 2.08609,0.85593 3.15596,1.28378 1.10543,0.39234 2.19307,0.80243 3.26294,1.23029 0.57051,0.28536 1.06976,0.57064 1.49773,0.85586 -0.17835,-0.74881 -0.2675,-1.49768 -0.26746,-2.24662 -4e-5,-2.78145 0.98062,-5.15288 2.942,-7.11428 1.99695,-1.96124 4.3862,-2.95975 7.16777,-2.99549 2.78147,8e-5 5.1529,0.99858 7.11428,2.99549 1.96126,1.9614 2.94192,4.315 2.942,7.06078 -8e-5,0.57065 -0.0714,1.31951 -0.21398,2.24661 0.4992,-0.32086 0.98061,-0.58831 1.44425,-0.80235 1.64033,-0.71314 3.79778,-1.55117 6.4724,-2.51407 3.06673,-1.03409 5.83042,-1.62248 8.29107,-1.76519 6.31184,-0.28522 11.3043,1.62262 14.97743,5.72351 3.6016,4.06537 5.27765,8.14848 5.02813,12.2494 -0.28538,4.24364 -1.51567,7.86318 -3.69087,10.85863 -0.7133,0.96288 -1.51567,1.87221 -2.40709,2.72803 -0.89159,0.82023 -2.08622,1.87221 -3.58388,3.15595 -1.17689,0.99854 -2.17537,1.71175 -2.99548,2.13963 -0.82027,0.39231 -1.3017,0.71325 -1.44425,0.96284 -0.0357,0.0713 -0.0714,0.12485 -0.10699,0.16047 -0.0357,0.0357 -0.0536,0.0714 -0.0535,0.10699 l -1.71171,10.05626 3.5304,13.21224 c -1.78313,1.60473 -5.77709,2.92416 -11.98194,3.9583 -6.205,1.03418 -13.37276,1.55126 -21.50331,1.55124 -8.27329,2e-5 -15.54803,-0.5349 -21.82424,-1.60472 -6.27629,-1.10547 -10.21677,-2.4784 -11.82147,-4.1188 l 3.5304,-13.05174"
         id="wking-outer" />
      <path
         inkscape:connector-curvature="0"
         style="fill:#ffffff"
         d="m 424.90369,273.26065 c 6.77546,-1.71167 15.76191,-2.56752 26.95936,-2.56756 10.98338,4e-5 19.84501,0.82023 26.58492,2.46057 l 1.33726,-7.86315 c -7.16784,-1.88997 -16.54654,-2.83497 -28.13615,-2.83501 -11.66104,4e-5 -21.02192,0.96288 -28.08268,2.8885 l 1.33729,7.91665"
         id="wking-inner-mid-up" />
      <path
         inkscape:connector-curvature="0"
         style="fill:#ffffff"
         d="m 479.46429,282.78201 -1.60472,-6.15146 c -7.06085,-1.56901 -15.79767,-2.35354 -26.21049,-2.35358 -10.37726,4e-5 -19.09626,0.78457 -26.157,2.35358 l -1.7117,6.20495 c 6.81112,-1.99697 16.11851,-2.99547 27.9222,-2.99549 11.73225,2e-5 20.98614,0.98068 27.76171,2.942"
         id="wking-inner-mid-mid" />
      <path
         inkscape:connector-curvature="0"
         style="fill:#ffffff"
         d="m 480.85506,287.81014 c -6.88256,-2.78151 -16.54656,-4.17225 -28.99201,-4.17227 -12.90916,2e-5 -22.68014,1.42642 -29.31297,4.27926 6.27623,2.49623 15.99371,3.74435 29.1525,3.74435 6.27619,0 11.9997,-0.33876 17.17054,-1.01632 5.1707,-0.71321 9.16467,-1.6582 11.98194,-2.83502"
         id="wking-inner-lower" />
      <path
         inkscape:connector-curvature="0"
         style="fill:#ffffff"
         d="m 449.7769,258.81813 c -0.0357,-1.39072 -0.0892,-2.76365 -0.16047,-4.11879 -0.0714,-1.39071 -0.33882,-2.92412 -0.80237,-4.60022 -1.46213,-4.77844 -3.67308,-8.62978 -6.63285,-11.55402 -1.53345,-1.49767 -3.88704,-2.88842 -7.06079,-4.17227 -3.63741,-1.42635 -7.07864,-2.13956 -10.32372,-2.13964 -5.63439,8e-5 -9.80666,2.01491 -12.51685,6.04448 -1.53342,2.13969 -2.30012,4.81421 -2.3001,8.02361 -2e-5,3.49478 0.85583,6.36545 2.56755,8.61201 1.03415,1.3195 2.35359,2.63893 3.95833,3.95833 1.6047,1.31948 3.10243,2.51411 4.49322,3.58388 6.24056,-2.24656 15.83323,-3.45903 28.77805,-3.63737"
         id="wking-inner-left-bulb" />
      <path
         inkscape:connector-curvature="0"
         style="fill:#ffffff"
         d="m 451.64908,248.86884 c 0.24957,-0.99844 0.46353,-1.69382 0.6419,-2.08615 0.35654,-1.3907 0.76665,-2.5675 1.23027,-3.5304 0.21392,-0.60615 0.51704,-1.30154 0.90936,-2.08612 0.42787,-0.82014 0.87361,-1.74731 1.33726,-2.78154 0.28522,-0.60615 0.58834,-1.3372 0.90934,-2.19311 0.3209,-0.89144 0.64184,-1.76513 0.96284,-2.62104 0.28522,-0.71315 0.42786,-1.47986 0.42792,-2.30012 -6e-5,-1.74729 -0.62411,-3.22721 -1.87217,-4.43974 -1.24818,-1.24804 -2.76375,-1.8721 -4.54672,-1.87217 -4.24364,7e-5 -6.36545,2.12188 -6.3654,6.36541 -5e-5,0.82027 0.14259,1.58695 0.42793,2.3001 0.78447,2.318 1.39071,3.92272 1.81867,4.81418 0.46355,1.03422 0.89148,1.96138 1.28378,2.78151 0.39223,0.78461 0.73099,1.47997 1.01633,2.08615 0.46354,1.17685 0.85581,2.35364 1.17681,3.5304 0.0713,0.21401 0.28522,0.89155 0.64188,2.03264"
         id="wking-inner-middle-bulb" />
      <path
         inkscape:connector-curvature="0"
         style="fill:#ffffff"
         d="m 453.46777,258.81813 c 6.13354,0.0714 11.75007,0.44579 16.8496,1.12329 5.09938,0.64194 9.09336,1.46213 11.98194,2.4606 1.355,-1.06979 2.83492,-2.24658 4.43973,-3.5304 1.60464,-1.3194 2.94191,-2.65667 4.01181,-4.01181 1.71161,-2.17523 2.56746,-5.04591 2.56756,-8.61203 -10e-5,-3.20938 -0.76679,-5.88393 -2.3001,-8.02362 -2.74595,-3.9939 -6.91823,-5.99089 -12.51686,-5.99097 -3.35216,8e-5 -6.79339,0.69547 -10.32371,2.08615 -3.10253,1.24818 -5.45614,2.63894 -7.06078,4.17228 -2.99556,2.99554 -5.2065,6.84688 -6.63287,11.55401 -0.49931,1.67611 -0.80241,3.2095 -0.90933,4.60021 -0.0714,1.35516 -0.10705,2.74591 -0.10699,4.17229"
         id="wking-inner-right-bulb" />
      <path
         inkscape:connector-curvature="0"
         style="fill:#000000"
         d="m 453.52125,221.05362 -3.79783,0 0,-7.00729 -4.43974,0 c -1.21251,8e-5 -1.81875,-0.58832 -1.81869,-1.76521 l 0,-0.0535 c -6e-5,-1.17671 0.60618,-1.76511 1.81869,-1.76519 l 4.43974,0 0,-4.54672 c -6e-5,-1.24802 0.64182,-1.87208 1.92566,-1.87218 l 0,0 c 1.24806,1e-4 1.87211,0.62416 1.87217,1.87218 l 0,4.54672 4.60023,0 c 1.17673,8e-5 1.76513,0.58848 1.76519,1.76519 l 0,0.0535 c -6e-5,1.17689 -0.58846,1.76529 -1.76519,1.76521 l -4.54672,0.0535 -0.0535,6.9538"
         id="wking-outer-cross" />
    </g>
  </g>
</svg>
