<?xml version="1.0" encoding="UTF-8" standalone="no"?>
<!-- Created with Inkscape (http://www.inkscape.org/) -->

<svg
   xmlns:dc="http://purl.org/dc/elements/1.1/"
   xmlns:cc="http://creativecommons.org/ns#"
   xmlns:rdf="http://www.w3.org/1999/02/22-rdf-syntax-ns#"
   xmlns:svg="http://www.w3.org/2000/svg"
   xmlns="http://www.w3.org/2000/svg"
   xmlns:sodipodi="http://sodipodi.sourceforge.net/DTD/sodipodi-0.dtd"
   xmlns:inkscape="http://www.inkscape.org/namespaces/inkscape"
   width="110"
   height="110"
   id="svg3407"
   version="1.1"
   inkscape:version="0.48.3.1 r9886"
   sodipodi:docname="wn.svg">
  <defs
     id="defs3409" />
  <sodipodi:namedview
     id="base"
     pagecolor="#ffffff"
     bordercolor="#666666"
     borderopacity="1.0"
     inkscape:pageopacity="0.0"
     inkscape:pageshadow="2"
     inkscape:zoom="0.35"
     inkscape:cx="-294.42584"
     inkscape:cy="44.985762"
     inkscape:document-units="px"
     inkscape:current-layer="layer1"
     showgrid="false"
     fit-margin-top="0"
     fit-margin-left="0"
     fit-margin-right="0"
     fit-margin-bottom="0"
     inkscape:window-width="639"
     inkscape:window-height="406"
     inkscape:window-x="959"
     inkscape:window-y="24"
     inkscape:window-maximized="0" />
  <metadata
     id="metadata3412">
    <rdf:RDF>
      <cc:Work
         rdf:about="">
        <dc:format>image/svg+xml</dc:format>
        <dc:type
           rdf:resource="http://purl.org/dc/dcmitype/StillImage" />
        <dc:title />
      </cc:Work>
    </rdf:RDF>
  </metadata>
  <g
     inkscape:label="Layer 1"
     inkscape:groupmode="layer"
     id="layer1"
     transform="translate(-329.42584,-467.34795)">
    <g
       id="wknight"
       transform="translate(233.79867,273.74656)">
      <path
         inkscape:connector-curvature="0"
         style="fill:#000000"
         d="m 153.51567,213.67189 c 5.59863,0.3567 10.78725,1.80095 15.56582,4.33275 4.77844,2.53199 8.84373,5.77709 12.1959,9.73534 2.3535,2.78159 4.56446,6.13367 6.63286,10.05626 2.10388,3.92272 3.77992,8.07717 5.02813,12.46337 1.42634,5.09949 2.31785,10.4664 2.67455,16.10071 0.39217,5.59875 0.5883,10.78735 0.5884,15.56584 l 0,11.66098 c -1e-4,2e-5 -2.78161,2e-5 -8.34456,0 -5.52748,2e-5 -12.71306,2e-5 -21.55681,0 l -35.89231,0 c -0.32098,2e-5 -0.48145,-0.87367 -0.48143,-2.62104 0.0356,-1.74735 0.16045,-3.15594 0.37444,-4.22578 0.14261,-0.85584 0.48139,-2.06829 1.01632,-3.63737 0.53488,-1.56903 1.42639,-3.47687 2.67455,-5.72351 0.57053,-1.14111 1.92562,-2.79933 4.06529,-4.97465 2.13959,-2.21091 4.60016,-4.76065 7.38173,-7.64919 1.60468,-1.64034 2.8528,-3.70865 3.74436,-6.20492 0.92711,-2.4962 1.3194,-4.76064 1.17681,-6.79334 -1.3195,1.06986 -2.76375,1.94356 -4.33277,2.62104 -7.56007,2.71027 -13.03396,6.63291 -16.42167,11.76799 -0.24966,0.32098 -1.05203,1.76523 -2.40709,4.33274 -0.71324,1.35515 -1.31946,2.28232 -1.81867,2.78154 -0.67759,0.67758 -1.65825,1.052 -2.94201,1.12331 -1.99702,0.107 -3.54823,-0.85584 -4.6537,-2.88852 -1.49775,0.42796 -2.83504,0.60627 -4.01181,0.53491 -1.997,-0.74883 -3.44125,-1.5512 -4.33275,-2.40709 -1.81871,-1.81865 -3.01332,-3.63732 -3.58388,-5.45605 -0.53493,-1.81866 -0.80237,-3.77998 -0.80237,-5.88399 0,-2.99544 1.85434,-6.95375 5.56305,-11.87495 4.35056,-5.66997 6.66849,-9.9849 6.9538,-12.94478 -2e-5,-1.2837 0.12479,-2.72797 0.37443,-4.33277 0.21395,-1.10539 0.6597,-2.17519 1.33728,-3.20944 0.46355,-0.71312 0.76667,-1.19455 0.90934,-1.44424 0.17829,-0.2852 0.48139,-0.69531 0.90935,-1.2303 0.3209,-0.42785 0.58836,-0.74879 0.80235,-0.96284 0.21394,-0.24954 0.48139,-0.57048 0.80237,-0.96282 0.39223,-0.46351 0.89148,-0.99842 1.49773,-1.60474 -1.89003,-5.20634 -2.65672,-10.57323 -2.3001,-16.10071 7.09642,2.53199 13.05173,6.50814 17.86592,11.92843 1.17676,-4.02955 3.4947,-7.29247 6.95381,-9.7888 2.8528,1.99708 5.11724,4.63596 6.79334,7.91663"
         id="wknight-outer" />
      <path
         inkscape:connector-curvature="0"
         style="fill:#ffffff"
         d="m 189.72895,289.78931 c -0.0358,0 -1e-4,-0.96282 0.10696,-2.88852 0.10689,-1.9613 0.1604,-4.06527 0.16049,-6.31191 0.0356,-4.45754 0.0356,-9.05774 0,-13.80063 -0.0358,-4.77846 -0.67766,-9.53913 -1.92568,-14.28204 -1.21255,-4.56449 -2.54981,-8.45149 -4.0118,-11.66098 -1.46217,-3.24505 -3.04907,-6.0444 -4.76068,-8.39806 -2.56765,-3.85126 -6.06237,-7.1142 -10.4842,-9.78883 -4.42198,-2.67444 -9.04002,-4.42181 -13.85412,-5.2421 0.32088,1.74747 0.46353,3.45917 0.42793,5.13512 -0.0714,1.28385 -0.6776,1.92575 -1.81869,1.92568 -1.3195,7e-5 -1.9079,-0.64183 -1.76519,-1.92568 0.10692,-4.7071 -1.56912,-8.73674 -5.02813,-12.08891 -2.71027,2.85293 -4.17234,6.16936 -4.38625,9.94928 -0.0714,1.24821 -0.71327,1.80094 -1.92568,1.65822 -1.14117,-0.0356 -1.71175,-0.69531 -1.71171,-1.97916 -4e-5,7e-5 0.0356,-0.14256 0.10699,-0.42793 -1.46213,0.46367 -2.99553,1.12339 -4.60021,1.97916 -1.0342,0.71328 -1.87221,0.53499 -2.51407,-0.53491 -0.64192,-1.06973 -0.35664,-1.90774 0.85585,-2.51406 1.53338,-0.78445 2.69233,-1.37284 3.47692,-1.76521 -3.06685,-3.13803 -6.56159,-5.66993 -10.48421,-7.59568 0.42791,4.9569 1.78299,9.64625 4.06531,14.06808 0.60618,0.92726 0.46355,1.74745 -0.42793,2.46058 -0.99854,0.7846 -1.83655,0.65979 -2.51407,-0.37445 -0.24966,-0.35652 -0.60626,-0.9984 -1.06983,-1.92566 -0.74888,0.74895 -1.24813,1.30168 -1.49773,1.65821 -0.24965,0.32103 -0.6954,1.03424 -1.33726,2.13963 -0.60626,1.10556 -1.05203,2.0149 -1.33728,2.72803 -0.32096,0.89159 -0.46361,1.62263 -0.42793,2.19313 0.0713,0.53497 0.12479,1.14121 0.16047,1.81869 -0.32096,2.10403 -1.05201,4.08319 -2.19312,5.93747 -1.1055,1.85441 -2.53191,4.11885 -4.27926,6.79334 -1.67606,2.56762 -2.95984,4.49328 -3.85134,5.777 -0.89153,1.28383 -1.56908,2.92421 -2.03264,4.92116 -0.32096,1.21249 -0.32096,2.6924 0,4.43973 0.32092,1.71175 1.0163,3.04901 2.08612,4.01181 1.64039,1.67608 3.22726,2.44279 4.7607,2.3001 0.49921,4e-5 1.15893,-0.19609 1.97916,-0.58839 0.85581,-0.39223 1.51553,-1.1411 1.97914,-2.24662 0.92716,-2.03261 1.69387,-3.04893 2.30012,-3.04897 0.89148,4e-5 1.37289,0.49929 1.44425,1.49773 -4e-5,0.21401 -0.28531,1.10553 -0.85585,2.67455 -0.32098,0.71324 -0.7489,1.46213 -1.28378,2.24662 -0.67758,0.92721 -0.9807,1.31948 -0.90935,1.17679 0.57055,2.03268 1.51555,2.38929 2.83501,1.06982 0.39225,-0.39224 0.83799,-1.12327 1.33728,-2.19313 0.49921,-1.06977 1.28374,-2.51402 2.35359,-4.33275 1.24808,-2.10393 2.58536,-3.81563 4.01181,-5.13512 1.42638,-1.3194 2.69232,-2.3892 3.79785,-3.20945 0.64184,-0.46353 1.42637,-0.99845 2.35359,-1.60472 0.92713,-0.60618 2.17525,-1.23024 3.74437,-1.87218 1.24805,-0.49919 2.62098,-1.10543 4.11877,-1.81869 1.53336,-0.74881 2.88846,-1.69381 4.06531,-2.83501 1.64032,-1.60467 2.90628,-3.58383 3.79786,-5.93747 0.46353,-1.31938 0.64182,-2.94192 0.53489,-4.86766 -0.321,-1.2124 0.28524,-1.81864 1.81869,-1.81869 1.14107,5e-5 1.78297,0.58847 1.92568,1.76518 -8e-5,4.02971 -1.14121,7.70274 -3.42341,11.01912 0.74881,2.28232 0.94494,4.77856 0.58839,7.48871 -0.32101,2.17533 -1.0877,4.51109 -2.3001,7.00729 -1.17687,2.46061 -3.58394,5.20648 -7.22126,8.23759 -7.38178,6.13364 -10.87651,12.44555 -10.48421,18.93575 -4e-5,0 3.03111,0 9.09344,0 6.0979,0 11.82141,0 17.17056,0 l 29.25947,0"
         id="wknight-inner" />
      <path
         inkscape:connector-curvature="0"
         style="fill:#000000"
         d="m 117.19541,257.2669 c -1.03416,0.64194 -1.65822,1.49779 -1.87217,2.56756 0.0356,1.17683 -0.5171,1.81873 -1.65823,1.92566 -1.24813,0.14268 -1.89001,-0.39223 -1.92566,-1.60472 0.14263,-2.35355 1.19462,-4.22572 3.15596,-5.61653 0.92716,-0.74883 1.78301,-0.6775 2.56756,0.21395 0.78451,0.96288 0.69536,1.80091 -0.26746,2.51408"
         id="wknight-outer-nose" />
      <path
         inkscape:connector-curvature="0"
         style="fill:#000000"
         d="m 133.08219,231.75178 c 0.46355,0.71329 0.64184,1.46215 0.53489,2.24662 -0.35664,2.28234 -1.62258,3.24516 -3.79783,2.8885 -0.64194,-0.10691 -1.15901,-0.32088 -1.55124,-0.6419 -0.14268,0.17837 -0.35664,0.57064 -0.6419,1.17681 -0.39228,1.14119 -1.14116,1.53346 -2.24659,1.1768 -1.10551,-0.42787 -1.53344,-1.23022 -1.28378,-2.40709 1.60468,-4.1009 4.51102,-6.91807 8.71899,-8.45154 1.21242,-0.35655 2.01477,8e-5 2.40709,1.0698 0.42789,1.14121 0.10693,1.92574 -0.96284,2.35361 -0.21401,0.10704 -0.41014,0.21403 -0.58839,0.32094 -0.17835,0.0714 -0.37448,0.16055 -0.5884,0.26745"
         id="wknight-outer-eye" />
    </g>
  </g>
</svg>
