<?xml version="1.0" encoding="UTF-8" standalone="no"?>
<!-- Created with Inkscape (http://www.inkscape.org/) -->

<svg
   xmlns:dc="http://purl.org/dc/elements/1.1/"
   xmlns:cc="http://creativecommons.org/ns#"
   xmlns:rdf="http://www.w3.org/1999/02/22-rdf-syntax-ns#"
   xmlns:svg="http://www.w3.org/2000/svg"
   xmlns="http://www.w3.org/2000/svg"
   xmlns:sodipodi="http://sodipodi.sourceforge.net/DTD/sodipodi-0.dtd"
   xmlns:inkscape="http://www.inkscape.org/namespaces/inkscape"
   width="110"
   height="110"
   id="svg3462"
   version="1.1"
   inkscape:version="0.48.3.1 r9886"
   sodipodi:docname="wp.svg">
  <defs
     id="defs3464">
    <filter
       id="filter2985"
       style="color-interpolation-filters:sRGB;"
       inkscape:label="Drop Shadow">
      <feFlood
         id="feFlood2987"
         flood-opacity="0.5"
         flood-color="rgb(0,0,0)"
         result="flood" />
      <feComposite
         id="feComposite2989"
         in2="SourceGraphic"
         in="flood"
         operator="in"
         result="composite1" />
      <feGaussianBlur
         id="feGaussianBlur2991"
         in="composite"
         stdDeviation="2"
         result="blur" />
      <feOffset
         id="feOffset2993"
         dx="4"
         dy="4"
         result="offset" />
      <feComposite
         id="feComposite2995"
         in2="offset"
         in="SourceGraphic"
         operator="over"
         result="composite2" />
    </filter>
  </defs>
  <sodipodi:namedview
     id="base"
     pagecolor="#ffffff"
     bordercolor="#666666"
     borderopacity="1.0"
     inkscape:pageopacity="0.0"
     inkscape:pageshadow="2"
     inkscape:zoom="0.35"
     inkscape:cx="-309.00209"
     inkscape:cy="43.782217"
     inkscape:document-units="px"
     inkscape:current-layer="layer1"
     showgrid="false"
     fit-margin-top="0"
     fit-margin-left="0"
     fit-margin-right="0"
     fit-margin-bottom="0"
     inkscape:window-width="639"
     inkscape:window-height="406"
     inkscape:window-x="828"
     inkscape:window-y="126"
     inkscape:window-maximized="0" />
  <metadata
     id="metadata3467">
    <rdf:RDF>
      <cc:Work
         rdf:about="">
        <dc:format>image/svg+xml</dc:format>
        <dc:type
           rdf:resource="http://purl.org/dc/dcmitype/StillImage" />
        <dc:title />
      </cc:Work>
    </rdf:RDF>
  </metadata>
  <g
     inkscape:label="Layer 1"
     inkscape:groupmode="layer"
     id="layer1"
     transform="translate(-344.00209,-466.1444)">
    <g
       id="wpawn"
       transform="translate(348.00432,271.44645)"
       style="filter:url(#filter2985)">
      <path
         inkscape:connector-curvature="0"
         style="fill:#000000"
         d="m 51.024511,293.48017 -28.885023,0 c -1.426447,-3.56604 -2.139671,-7.29257 -2.139632,-11.17959 -3.9e-5,-6.59716 1.872137,-12.51681 5.616527,-17.75893 3.744331,-5.24207 8.558489,-8.98642 14.442511,-11.23308 -2.531935,-1.17675 -4.600243,-2.94194 -6.204923,-5.29558 -1.569096,-2.38921 -2.353625,-5.08158 -2.353605,-8.07712 -2e-5,-3.74429 1.248098,-6.98939 3.744371,-9.73532 2.496195,-2.74579 5.562984,-4.33267 9.200408,-4.76067 -2.888557,-2.17522 -4.332807,-5.0459 -4.332748,-8.61204 -5.9e-5,-2.99538 1.051926,-5.56294 3.155955,-7.70267 2.139573,-2.13954 4.724973,-3.20934 7.756159,-3.20944 2.995426,1e-4 5.562984,1.0699 7.702675,3.20944 2.139573,2.13973 3.20938,4.70729 3.209458,7.70267 -7.8e-5,3.56614 -1.444328,6.43682 -4.332767,8.61204 3.637306,0.428 6.704115,2.01488 9.200427,4.76067 2.496156,2.74593 3.744273,5.99103 3.744351,9.73532 -7.8e-5,2.99554 -0.820268,5.68791 -2.460571,8.07712 -1.604798,2.35364 -3.655284,4.11883 -6.15144,5.29558 5.883905,2.24666 10.698082,5.99101 14.442511,11.23308 3.744273,5.24212 5.616449,11.16177 5.616527,17.75893 -7.8e-5,3.85136 -0.695461,7.57789 -2.086129,11.17959 l -28.885042,0"
         id="wpawn-outer" />
      <path
         inkscape:connector-curvature="0"
         style="fill:#ffffff"
         d="m 51.024511,289.84279 26.26398,0 c 0.748789,-2.56754 1.123232,-5.08161 1.12331,-7.54221 -7.8e-5,-5.563 -1.551314,-10.60897 -4.653688,-15.13789 -3.066887,-4.52884 -7.025211,-7.86311 -11.874972,-10.00278 -2.353644,-0.17825 -3.530457,-1.46203 -3.530378,-3.85134 -7.9e-5,-1.88995 1.194555,-3.28072 3.583881,-4.17227 3.316346,-2.31789 4.974569,-5.3847 4.974647,-9.20043 -7.8e-5,-2.74579 -0.927256,-5.15288 -2.781532,-7.22125 -1.854413,-2.06825 -4.101031,-3.26286 -6.739836,-3.5839 -2.13969,-0.17821 -3.209516,-1.39066 -3.209457,-3.63736 -5.9e-5,-0.99842 0.392205,-1.92558 1.176812,-2.78153 1.9256,-1.49766 2.88844,-3.45898 2.888498,-5.88399 -5.8e-5,-1.9969 -0.713282,-3.70859 -2.139632,-5.13511 -1.426486,-1.42633 -3.120351,-2.13954 -5.081633,-2.13963 -2.032704,9e-5 -3.762231,0.7133 -5.188601,2.13963 -1.390804,1.42652 -2.086187,3.13821 -2.086148,5.13511 -3.9e-5,2.38935 0.96278,4.35067 2.888498,5.88399 0.78449,0.78462 1.176754,1.7118 1.176812,2.78153 -5.8e-5,2.2467 -1.052043,3.45915 -3.155954,3.63736 -2.674604,0.32104 -4.939044,1.51565 -6.793339,3.5839 -1.818732,2.06837 -2.728068,4.47546 -2.728029,7.22125 -3.9e-5,3.81573 1.658164,6.88254 4.974647,9.20043 2.389209,0.92721 3.583823,2.31798 3.583881,4.17227 -5.8e-5,2.38931 -1.194672,3.67309 -3.583881,3.85134 -4.849878,2.13967 -8.808202,5.47394 -11.874972,10.00278 -3.066829,4.52892 -4.600224,9.57489 -4.600204,15.13789 -2e-5,2.63891 0.374404,5.15298 1.123309,7.54221 l 26.263981,0"
         id="wpawn-inner" />
    </g>
  </g>
</svg>
