<?xml version="1.0" encoding="UTF-8" standalone="no"?>
<!-- Created with Inkscape (http://www.inkscape.org/) -->

<svg
   xmlns:dc="http://purl.org/dc/elements/1.1/"
   xmlns:cc="http://creativecommons.org/ns#"
   xmlns:rdf="http://www.w3.org/1999/02/22-rdf-syntax-ns#"
   xmlns:svg="http://www.w3.org/2000/svg"
   xmlns="http://www.w3.org/2000/svg"
   xmlns:sodipodi="http://sodipodi.sourceforge.net/DTD/sodipodi-0.dtd"
   xmlns:inkscape="http://www.inkscape.org/namespaces/inkscape"
   width="110"
   height="110"
   id="svg3342"
   version="1.1"
   inkscape:version="0.48.3.1 r9886"
   sodipodi:docname="wb.svg">
  <defs
     id="defs3344" />
  <sodipodi:namedview
     id="base"
     pagecolor="#ffffff"
     bordercolor="#666666"
     borderopacity="1.0"
     inkscape:pageopacity="0.0"
     inkscape:pageshadow="2"
     inkscape:zoom="0.35"
     inkscape:cx="43.80896"
     inkscape:cy="43.865535"
     inkscape:document-units="px"
     inkscape:current-layer="layer1"
     showgrid="false"
     fit-margin-top="0"
     fit-margin-left="0"
     fit-margin-right="0"
     fit-margin-bottom="0"
     inkscape:window-width="639"
     inkscape:window-height="406"
     inkscape:window-x="959"
     inkscape:window-y="24"
     inkscape:window-maximized="0" />
  <metadata
     id="metadata3347">
    <rdf:RDF>
      <cc:Work
         rdf:about="">
        <dc:format>image/svg+xml</dc:format>
        <dc:type
           rdf:resource="http://purl.org/dc/dcmitype/StillImage" />
        <dc:title />
      </cc:Work>
    </rdf:RDF>
  </metadata>
  <g
     inkscape:label="Layer 1"
     inkscape:groupmode="layer"
     id="layer1"
     transform="translate(-331.19104,-466.22772)">
    <g
       id="wbishop"
       inkscape:label="#g1641"
       transform="translate(135.85423,272.03484)">
      <path
         inkscape:connector-curvature="0"
         style="fill:#000000"
         d="m 250.3368,283.47738 c -0.49931,2.03268 -1.10552,3.44127 -1.81869,4.22578 -0.71326,0.78455 -1.65826,1.60474 -2.83501,2.46057 -1.28382,0.89153 -2.7994,1.65824 -4.54672,2.3001 -1.74741,0.60626 -3.69091,0.74889 -5.8305,0.42793 l -15.03091,-2.08613 c -0.60626,-0.0713 -1.15899,-0.0713 -1.65822,0 -0.46361,0.0713 -0.90936,0.10699 -1.33727,0.10699 -0.74888,0 -1.71172,0.17831 -2.88849,0.53489 -1.14117,0.32096 -2.03267,0.80239 -2.67455,1.44425 l -5.1886,-8.50503 c 0.64186,-0.71318 1.21244,-1.21243 1.71171,-1.49775 0.49923,-0.28526 1.08762,-0.58838 1.76519,-0.90934 2.06828,-0.96282 4.27924,-1.55121 6.63284,-1.76518 0.99849,-0.0713 1.97915,-0.0891 2.94201,-0.0535 0.96282,0.0357 1.9613,2e-5 2.99548,-0.10698 1.92564,0.32097 3.8513,0.62409 5.77702,0.90935 1.96128,0.24964 3.92262,0.51709 5.88398,0.80235 2.13959,4e-5 3.58384,-0.21393 4.33275,-0.64188 0.39222,-0.21393 1.01628,-0.6062 1.87217,-1.17679 0.85582,-0.57056 1.71167,-1.40857 2.56756,-2.51408 -1.89005,-0.21393 -3.81571,-0.57053 -5.77699,-1.0698 -1.96138,-0.5349 -3.69091,-1.08763 -5.18862,-1.65822 l 5.56304,-13.80064 c -2.78155,-1.60468 -4.72505,-2.88846 -5.83048,-3.85133 -1.10553,-0.99845 -1.9792,-2.13958 -2.62106,-3.42342 -0.9272,-1.64032 -1.53344,-3.22722 -1.8187,-4.76067 -0.24965,-1.53335 -0.35662,-2.90628 -0.32094,-4.11879 0.0356,-2.13958 0.53488,-4.49316 1.49776,-7.0608 0.99846,-2.60314 2.85279,-4.92106 5.56304,-6.95379 2.24656,-1.71163 4.4397,-3.47683 6.57937,-5.29558 2.13957,-1.81862 4.26138,-3.94041 6.36539,-6.36542 -2.63892,-1.355 -3.95836,-3.51248 -3.95831,-6.47238 -5e-5,-1.9969 0.69533,-3.70861 2.08613,-5.13511 1.42637,-1.42633 3.15592,-2.13954 5.18862,-2.13964 1.99693,1e-4 3.70863,0.71331 5.13512,2.13964 1.42635,1.4265 2.13957,3.13821 2.13963,5.13511 -6e-5,2.92424 -1.3195,5.08171 -3.95832,6.47238 2.06825,2.42501 4.1544,4.5468 6.25842,6.36542 2.13956,1.81875 4.36836,3.58395 6.68636,5.29558 2.67446,2.03273 4.49314,4.35065 5.45605,6.95379 0.96277,2.56764 1.47984,4.92122 1.55124,7.0608 -8e-5,1.21251 -0.12489,2.58544 -0.37444,4.11879 -0.2497,1.53345 -0.82027,3.12035 -1.71171,4.76067 -0.71328,1.28384 -1.62262,2.42497 -2.72803,3.42342 -1.06988,0.96287 -2.97772,2.24665 -5.72351,3.85133 l 5.56304,13.80064 c -1.56913,0.57059 -3.33432,1.12332 -5.29558,1.65822 -1.9614,0.49927 -3.8514,0.85587 -5.67003,1.0698 0.82013,1.10551 1.65814,1.94352 2.51407,2.51408 0.85578,0.57059 1.49768,0.96286 1.92566,1.17679 0.74881,0.42795 2.19306,0.64192 4.33277,0.64188 1.92558,-0.28526 3.85126,-0.55271 5.77699,-0.80235 1.96125,-0.28526 3.92259,-0.58838 5.88399,-0.90935 0.96276,0.107 1.92558,0.14266 2.88852,0.10698 0.9984,-0.0356 2.01472,-0.0178 3.04896,0.0535 2.28219,0.21397 4.49314,0.80236 6.63285,1.76518 0.6418,0.32096 1.21238,0.62408 1.71171,0.90934 0.53481,0.28532 1.12321,0.78457 1.76521,1.49775 l -5.24211,8.50503 c -0.64197,-0.64186 -1.55133,-1.12329 -2.72802,-1.44425 -1.14123,-0.35658 -2.06841,-0.53489 -2.78154,-0.53489 -0.46366,0 -0.94507,-0.0357 -1.44425,-0.10699 -0.46366,-0.0713 -0.99857,-0.0713 -1.60471,0 l -14.97743,2.08613 c -2.13969,0.32096 -4.13669,0.17833 -5.99097,-0.42793 -1.81875,-0.6062 -3.31648,-1.40857 -4.49322,-2.40707 -1.17687,-0.96282 -2.12187,-1.78301 -2.83501,-2.46059 -0.67762,-0.71318 -1.24818,-2.08611 -1.71171,-4.11879"
         id="wbishop-outer" />
      <path
         inkscape:connector-curvature="0"
         style="fill:#ffffff"
         d="m 250.3368,274.49092 c 2.42485,4e-5 4.77844,-0.19609 7.06078,-0.58839 2.31786,-0.42789 4.54666,-0.92714 6.68635,-1.49774 -4.17233,-1.10545 -8.75472,-1.65818 -13.74713,-1.65822 -5.06385,4e-5 -9.64623,0.55277 -13.74714,1.65822 2.06826,0.5706 4.2614,1.06985 6.57936,1.49774 2.31789,0.3923 4.70715,0.58843 7.16778,0.58839"
         id="wbishop-inner1" />
      <path
         inkscape:connector-curvature="0"
         style="fill:#ffffff"
         d="m 248.41113,277.43292 -1.71171,0 c -1.99704,3.20948 -3.90488,5.22429 -5.72351,6.04446 -0.8559,0.42796 -1.80089,0.82023 -2.83502,1.17681 -1.0342,0.35662 -2.22882,0.53491 -3.58388,0.53489 -0.24965,2e-5 -2.15749,-0.28526 -5.72351,-0.85585 -1.71175,-0.2496 -3.06683,-0.51705 -4.06531,-0.80235 -0.99852,-0.28526 -1.78305,-0.46357 -2.35359,-0.53491 -2.03268,-0.2496 -4.40409,-0.14261 -7.11428,0.32094 -1.6404,0.28531 -3.17379,0.80239 -4.6002,1.55123 l 2.56756,4.17228 c 0.4279,-0.42791 0.98064,-0.69536 1.6582,-0.80235 0.7132,-0.14263 1.35508,-0.28528 1.92568,-0.42793 1.49771,-0.24961 2.92414,-0.28527 4.27926,-0.10698 0.46357,0.107 1.37291,0.24963 2.72803,0.42792 1.35506,0.14267 3.15594,0.39229 5.40257,0.74887 2.67451,0.39228 4.49318,0.58842 5.45606,0.5884 3.74431,2e-5 6.61499,-0.71319 8.61203,-2.13964 1.2124,-0.92713 2.35353,-2.21091 3.42341,-3.85133 1.10541,-1.67601 1.65815,-3.69083 1.65821,-6.04446"
         id="wbishop-inner2" />
      <path
         inkscape:connector-curvature="0"
         style="fill:#ffffff"
         d="m 250.3368,267.00222 c 4.17222,4e-5 8.18403,0.41012 12.03543,1.2303 l -2.56756,-6.57939 c -3.13819,-0.49919 -6.29415,-0.74883 -9.46787,-0.74887 -3.24516,4e-5 -6.41895,0.24968 -9.52136,0.74887 l -2.56756,6.57939 c 3.81563,-0.82018 7.84526,-1.23026 12.08892,-1.2303"
         id="wbishop-inner3" />
      <path
         inkscape:connector-curvature="0"
         style="fill:#ffffff"
         d="m 250.3368,257.2669 c 3.45902,4e-5 6.77544,0.26749 9.94928,0.80235 3.49467,-1.24806 6.02657,-3.19156 7.59571,-5.8305 1.35502,-2.2822 2.03256,-4.79628 2.03264,-7.54219 -8e-5,-1.64032 -0.41016,-3.44119 -1.23029,-5.40257 -0.82025,-1.99692 -2.15754,-3.79778 -4.01181,-5.40257 -2.10403,-1.74729 -4.40413,-3.65513 -6.90031,-5.72352 -2.49629,-2.10389 -4.9747,-4.54664 -7.43522,-7.32825 -2.49629,2.78161 -4.99252,5.22436 -7.48872,7.32825 -2.49627,2.06839 -4.77855,3.97623 -6.84682,5.72352 -1.89004,1.60479 -3.24514,3.40565 -4.06529,5.40257 -0.78457,1.96138 -1.17683,3.76225 -1.17681,5.40257 -2e-5,2.74591 0.6597,5.25999 1.97916,7.54219 1.53337,2.63894 4.08309,4.58244 7.64919,5.8305 3.13807,-0.53486 6.4545,-0.80231 9.94929,-0.80235"
         id="wbishop-inner4" />
      <path
         inkscape:connector-curvature="0"
         style="fill:#000000"
         d="m 248.41113,243.57325 -4.43974,-0.0535 c -1.21251,6e-5 -1.81873,-0.60616 -1.81869,-1.81867 l 0,0 c -4e-5,-1.2124 0.60618,-1.81863 1.81869,-1.81869 l 4.43974,0 0,-4.60021 c -6e-5,-1.24806 0.64184,-1.87211 1.92567,-1.87219 l 0,0 c 1.24806,8e-5 1.87212,0.62413 1.87218,1.87219 l 0,4.60021 4.6002,0 c 1.17674,6e-5 1.76513,0.60629 1.76519,1.81869 l 0,0 c -6e-5,1.21251 -0.58845,1.81873 -1.76519,1.81867 l -4.6002,0 0,4.38625 c -6e-5,1.28384 -0.62412,1.92572 -1.87218,1.92568 l 0,0 c -1.28383,4e-5 -1.92573,-0.64184 -1.92567,-1.92568 l 0,-4.33275"
         id="wbishop-outer1" />
      <path
         inkscape:connector-curvature="0"
         style="fill:#ffffff"
         d="m 250.3368,216.23945 c 2.42485,1e-4 3.63731,-1.21238 3.63737,-3.63737 -6e-5,-2.42483 -1.21252,-3.63728 -3.63737,-3.63738 -2.42496,1e-4 -3.63742,1.21255 -3.63738,3.63738 -4e-5,2.42499 1.21242,3.63747 3.63738,3.63737"
         id="wbishop-inner5" />
      <path
         inkscape:connector-curvature="0"
         style="fill:#ffffff"
         d="m 252.20898,277.43292 c -6e-5,2.35363 0.53485,4.36845 1.60472,6.04446 1.10541,1.64042 2.28222,2.9242 3.5304,3.85133 1.96126,1.42645 4.83194,2.13966 8.61201,2.13964 0.9271,2e-5 2.74579,-0.19612 5.45605,-0.5884 2.21088,-0.35658 3.99391,-0.6062 5.34909,-0.74887 1.35503,-0.17829 2.26437,-0.32092 2.72803,-0.42792 1.35503,-0.17829 2.78144,-0.14263 4.27927,0.10698 0.57047,0.14265 1.19453,0.2853 1.87217,0.42793 0.71313,0.10699 1.30152,0.37444 1.76521,0.80235 l 2.56756,-4.17228 c -1.46219,-0.74884 -3.01342,-1.26592 -4.65371,-1.55123 -2.71028,-0.46355 -5.08171,-0.57054 -7.11428,-0.32094 -0.60631,0.0713 -1.40866,0.24965 -2.40708,0.53491 -0.96292,0.2853 -2.28234,0.55275 -3.95833,0.80235 -3.60178,0.57059 -5.50962,0.85587 -5.72351,0.85585 -1.39083,2e-5 -2.60328,-0.17827 -3.63737,-0.53489 -1.03422,-0.35658 -1.9614,-0.74885 -2.78153,-1.17681 -1.89005,-0.85582 -3.81573,-2.87064 -5.777,-6.04446 l -1.7117,0"
         id="wbishop-inner6" />
    </g>
  </g>
</svg>
