<?xml version="1.0" encoding="UTF-8" standalone="no"?>
<!-- Created with Inkscape (http://www.inkscape.org/) -->

<svg
   xmlns:dc="http://purl.org/dc/elements/1.1/"
   xmlns:cc="http://creativecommons.org/ns#"
   xmlns:rdf="http://www.w3.org/1999/02/22-rdf-syntax-ns#"
   xmlns:svg="http://www.w3.org/2000/svg"
   xmlns="http://www.w3.org/2000/svg"
   xmlns:sodipodi="http://sodipodi.sourceforge.net/DTD/sodipodi-0.dtd"
   xmlns:inkscape="http://www.inkscape.org/namespaces/inkscape"
   width="110"
   height="110"
   id="svg3571"
   version="1.1"
   inkscape:version="0.48.3.1 r9886"
   sodipodi:docname="bk.svg">
  <defs
     id="defs3573" />
  <sodipodi:namedview
     id="base"
     pagecolor="#ffffff"
     bordercolor="#666666"
     borderopacity="1.0"
     inkscape:pageopacity="0.0"
     inkscape:pageshadow="2"
     inkscape:zoom="0.35"
     inkscape:cx="46.091377"
     inkscape:cy="45.627639"
     inkscape:document-units="px"
     inkscape:current-layer="layer1"
     showgrid="false"
     fit-margin-top="0"
     fit-margin-left="0"
     fit-margin-right="0"
     fit-margin-bottom="0"
     inkscape:window-width="639"
     inkscape:window-height="406"
     inkscape:window-x="65"
     inkscape:window-y="24"
     inkscape:window-maximized="0" />
  <metadata
     id="metadata3576">
    <rdf:RDF>
      <cc:Work
         rdf:about="">
        <dc:format>image/svg+xml</dc:format>
        <dc:type
           rdf:resource="http://purl.org/dc/dcmitype/StillImage" />
        <dc:title />
      </cc:Work>
    </rdf:RDF>
  </metadata>
  <g
     inkscape:label="Layer 1"
     inkscape:groupmode="layer"
     id="layer1"
     transform="translate(-328.90862,-467.98982)">
    <g
       style="display:block"
       id="bking"
       transform="translate(-67.514961,473.51463)">
      <path
         inkscape:connector-curvature="0"
         style="fill:#000000"
         d="m 421.42679,76.327573 -1.76521,-10.002777 c -0.0357,3.9e-5 -0.0892,-0.07129 -0.16047,-0.213973 -0.17831,-0.249577 -0.6954,-0.570517 -1.55123,-0.96284 -0.82021,-0.427887 -1.78303,-1.141091 -2.8885,-2.139632 -1.56908,-1.319382 -2.79937,-2.389208 -3.69087,-3.209438 -0.85585,-0.820151 -1.6404,-1.711666 -2.35358,-2.674545 -2.17532,-2.995426 -3.38777,-6.614969 -3.63739,-10.85863 -0.3566,-4.100894 1.3016,-8.184026 4.97465,-12.249396 3.70869,-4.065213 8.71898,-5.97305 15.03093,-5.723513 2.35354,0.142727 5.11723,0.713282 8.29107,1.711706 1.0341,0.428004 2.08609,0.855931 3.15595,1.283779 1.10543,0.392342 2.19308,0.802428 3.26294,1.230296 0.57052,0.285356 1.06977,0.570633 1.49774,0.855852 -0.17835,-0.748807 -0.2675,-1.497674 -0.26746,-2.246618 -4e-5,-2.781453 0.98062,-5.15286 2.942,-7.114279 1.99695,-1.961243 4.38619,-2.959744 7.16776,-2.995485 2.78148,7.8e-5 5.1529,0.99858 7.11428,2.995485 1.96127,1.961419 2.94193,4.315004 2.942,7.060795 -7e-5,0.570634 -0.0714,1.319501 -0.21397,2.246599 0.49919,-0.320861 0.9806,-0.588318 1.44425,-0.802349 1.64032,-0.713146 3.79778,-1.551158 6.4724,-2.514075 3.06673,-1.034086 5.83042,-1.622482 8.29107,-1.765189 6.31183,-0.28522 11.3043,1.622618 14.97743,5.723513 3.6016,4.065369 5.27764,8.148482 5.02813,12.249396 -0.28538,4.24366 -1.51568,7.863184 -3.69087,10.85863 -0.7133,0.962878 -1.51567,1.872214 -2.40709,2.728028 -0.89159,0.82023 -2.08623,1.872215 -3.58388,3.155955 -1.17689,0.998541 -2.17537,1.711745 -2.99549,2.139632 -0.82027,0.392303 -1.30169,0.713243 -1.44425,0.962839 -0.0357,0.07136 -0.0714,0.124847 -0.10698,0.16047 -0.0357,0.0357 -0.0536,0.07136 -0.0535,0.106987 l -1.7117,10.05626 3.5304,13.212236 c -1.78313,1.604738 -5.7771,2.92418 -11.98194,3.958324 -6.205,1.034163 -13.37277,1.551235 -21.50331,1.551216 -8.27329,1.9e-5 -15.54804,-0.534893 -21.82425,-1.604719 -6.27628,-1.105469 -10.21677,-2.478394 -11.82147,-4.118794 l 3.5304,-13.051746"
         id="bking-outer1" />
      <path
         inkscape:connector-curvature="0"
         style="fill:#ffffff"
         d="m 453.3608,62.152499 c 6.13354,0.107025 11.16167,0.410144 15.08439,0.909355 3.92259,0.49929 7.45298,1.087687 10.5912,1.76519 1.96124,-1.92562 4.13653,-3.762134 6.52586,-5.509541 2.38917,-1.747328 4.06521,-3.245061 5.02815,-4.493237 1.71161,-2.317884 2.56746,-5.206382 2.56756,-8.665514 -10e-5,-3.173718 -0.76681,-5.830422 -2.3001,-7.970132 -2.74597,-4.02957 -6.93607,-6.044375 -12.57036,-6.044453 -3.28084,7.8e-5 -6.70425,0.713282 -10.27023,2.139632 -3.24516,1.283857 -5.59877,2.674603 -7.06078,4.172277 -3.0312,2.924239 -5.24216,6.775577 -6.63287,11.554013 -0.53495,1.64044 -0.83807,3.726589 -0.90933,6.258426 -0.0357,2.531955 -0.0535,4.493277 -0.0535,5.883984"
         id="bking-inner1" />
      <path
         inkscape:connector-curvature="0"
         style="fill:#ffffff"
         d="m 477.85957,71.40641 c -6.5616,-1.818653 -15.29842,-2.72799 -26.21047,-2.728029 -10.9835,3.9e-5 -19.82731,0.927216 -26.53144,2.781532 l 0.80235,5.402573 c 6.73982,-1.747348 15.31617,-2.621022 25.72909,-2.621062 10.37714,4e-5 18.82868,0.855892 25.35462,2.567559 l 0.85585,-5.402573"
         id="bking-inner2" />
      <path
         inkscape:connector-curvature="0"
         style="fill:#ffffff"
         d="m 479.25034,87.400157 -1.60472,-6.31191 c -6.95389,-1.6047 -15.69071,-2.407049 -26.2105,-2.407089 -10.41292,4e-5 -19.11408,0.802389 -26.10351,2.407089 l -1.7117,6.365413 c 6.77548,-2.068289 16.06503,-3.102452 27.86872,-3.102472 5.66995,2e-5 10.92987,0.285298 15.77977,0.855853 4.84976,0.570595 8.84373,1.30162 11.98194,2.193116"
         id="bking-inner3" />
      <path
         inkscape:connector-curvature="0"
         style="fill:#ffffff"
         d="m 451.43512,48.672827 c 0.24958,-0.998443 0.46353,-1.693826 0.6419,-2.086149 0.35655,-1.390687 0.76665,-2.5675 1.23028,-3.530378 0.21391,-0.606179 0.51703,-1.301562 0.90936,-2.086149 0.42786,-0.820132 0.87361,-1.747309 1.33726,-2.781531 0.28522,-0.606159 0.58834,-1.337185 0.90933,-2.193116 0.3209,-0.891436 0.64184,-1.76513 0.96284,-2.621042 0.28522,-0.713145 0.42787,-1.479852 0.42793,-2.300102 -6e-5,-1.747289 -0.62412,-3.2272 -1.87218,-4.439753 -1.24817,-1.248039 -2.76374,-1.872097 -4.54672,-1.872176 -4.24364,7.9e-5 -6.36545,2.121889 -6.36539,6.365413 -6e-5,0.820269 0.14259,1.586956 0.42793,2.300102 0.78447,2.318001 1.3907,3.922721 1.81867,4.814177 0.46355,1.034222 0.89148,1.961399 1.28378,2.781512 0.39222,0.784606 0.73099,1.479989 1.01632,2.086148 0.46355,1.176852 0.85582,2.353644 1.17681,3.530398 0.0713,0.214012 0.28522,0.891574 0.64188,2.032646"
         id="bking-inner4" />
      <path
         inkscape:connector-curvature="0"
         style="fill:#000000"
         d="m 453.3073,20.85761 -3.79784,0 0,-7.007292 -4.43973,0 c -1.21251,7.8e-5 -1.81875,-0.588318 -1.81869,-1.765209 l 0,-0.05348 c -6e-5,-1.176695 0.60618,-1.765092 1.81869,-1.76519 l 4.43973,0 0,-4.54672 c -5e-5,-1.2480193 0.64183,-1.8720778 1.92566,-1.8721756 l 0,0 c 1.24806,9.78e-5 1.87212,0.6241563 1.87218,1.8721756 l 0,4.54672 4.60022,0 c 1.17674,9.8e-5 1.76513,0.588495 1.76519,1.76519 l 0,0.05348 c -6e-5,1.176891 -0.58845,1.765287 -1.76519,1.765209 l -4.54672,0.05348 -0.0535,6.953809"
         id="bking-outer2" />
      <path
         inkscape:connector-curvature="0"
         style="fill:#000000"
         d="m 451.43512,39.525902 c -0.0714,-0.356543 -0.16052,-0.659662 -0.26745,-0.909356 -0.21401,-0.713126 -0.39233,-1.230217 -0.5349,-1.551216 -0.10704,-0.249557 -0.24969,-0.552675 -0.42792,-0.909356 -0.17837,-0.392186 -0.35666,-0.802291 -0.53492,-1.230276 -0.10704,-0.249557 -0.24967,-0.570497 -0.42792,-0.962839 -0.14271,-0.427868 -0.26752,-0.820132 -0.37444,-1.176793 -0.10703,-0.320881 -0.16053,-0.659662 -0.16047,-1.016342 -6e-5,-1.889919 0.90929,-2.834937 2.72802,-2.834996 1.88996,5.9e-5 2.83496,0.927236 2.83502,2.781512 -6e-5,0.463667 -0.0714,0.802428 -0.21395,1.016323 -0.49931,1.355182 -0.76677,2.086207 -0.80237,2.193135 -0.53498,1.069885 -0.87374,1.765248 -1.01633,2.086129 -0.24967,0.570634 -0.41016,1.087725 -0.48143,1.551236 -0.10702,0.214031 -0.17835,0.410164 -0.21395,0.588396 -0.0357,0.142707 -0.0714,0.267515 -0.10699,0.374443"
         id="bking-outer3" />
      <path
         inkscape:connector-curvature="0"
         style="fill:#ffffff"
         d="m 449.50946,62.099015 c -5e-5,-1.426369 -0.0357,-3.38771 -0.10698,-5.883983 -0.0714,-2.531857 -0.33882,-4.635827 -0.80237,-6.31191 -1.46213,-4.778456 -3.67309,-8.629793 -6.63285,-11.554013 -1.53345,-1.497674 -3.88704,-2.888439 -7.0608,-4.172297 -3.6374,-1.426349 -7.07863,-2.139554 -10.32371,-2.139632 -5.63439,7.8e-5 -9.80667,2.014903 -12.51686,6.044473 -1.53341,2.139691 -2.30012,4.814236 -2.3001,8.023615 -2e-5,3.494794 0.85584,6.365452 2.56756,8.612012 0.8915,1.283838 2.6032,2.870735 5.13512,4.760693 2.53187,1.890056 4.67151,3.637404 6.41889,5.242084 3.10244,-0.677503 6.59717,-1.265899 10.48421,-1.765189 3.9226,-0.499212 8.96858,-0.784489 15.13789,-0.855853"
         id="bking-inner5" />
      <path
         inkscape:connector-curvature="0"
         style="fill:#000000"
         d="m 445.44415,57.980221 c -4.45761,0.07136 -8.54072,0.303158 -12.24939,0.695383 -3.67307,0.392303 -6.5259,0.945057 -8.55853,1.658222 -1.06985,-1.319402 -2.31796,-2.638844 -3.74435,-3.958324 -1.39079,-1.355045 -2.62106,-2.621003 -3.69087,-3.797854 -1.78305,-1.818634 -2.67454,-3.815617 -2.67454,-5.99097 0,-2.674467 0.44574,-4.635807 1.33728,-5.883983 0.96282,-1.42635 2.44271,-2.478335 4.43973,-3.155955 1.99697,-0.713145 4.01179,-1.069748 6.04446,-1.069826 2.56753,7.8e-5 5.02811,0.570654 7.38173,1.711706 2.3179,1.212533 3.8513,2.175372 4.60021,2.888518 2.42487,2.46063 4.31488,5.135175 5.67002,8.023615 0.46355,1.069865 0.80232,2.567617 1.01633,4.493217 0.24957,1.890076 0.39222,3.352146 0.42792,4.386251"
         id="bking-outer4" />
      <path
         inkscape:connector-curvature="0"
         style="fill:#000000"
         d="m 457.26562,57.980221 c -6e-5,-1.034105 0.10693,-2.496175 0.32094,-4.386251 0.24958,-1.9256 0.624,-3.423352 1.12331,-4.493217 1.31939,-2.88844 3.20938,-5.562985 5.67003,-8.023615 0.71315,-0.713146 2.24654,-1.675985 4.60021,-2.888518 2.31786,-1.141052 4.79627,-1.711628 7.43522,-1.711706 1.9969,7.8e-5 3.97606,0.356681 5.93748,1.069826 1.99691,0.67762 3.49464,1.729605 4.49322,3.155955 0.89144,1.212513 1.33718,3.173854 1.33728,5.883983 -1e-4,2.139691 -0.87377,4.136674 -2.62106,5.99097 -1.14121,1.176851 -2.3715,2.371485 -3.69085,3.583881 -1.31954,1.176851 -2.58548,2.567617 -3.79785,4.172297 -2.06839,-0.713165 -4.95689,-1.265919 -8.66552,-1.658222 -3.6731,-0.392225 -7.72057,-0.62402 -12.14241,-0.695383"
         id="bking-outer5" />
    </g>
  </g>
</svg>
