<?xml version="1.0" encoding="UTF-8" standalone="no"?>
<!-- Created with Inkscape (http://www.inkscape.org/) -->

<svg
   xmlns:dc="http://purl.org/dc/elements/1.1/"
   xmlns:cc="http://creativecommons.org/ns#"
   xmlns:rdf="http://www.w3.org/1999/02/22-rdf-syntax-ns#"
   xmlns:svg="http://www.w3.org/2000/svg"
   xmlns="http://www.w3.org/2000/svg"
   xmlns:sodipodi="http://sodipodi.sourceforge.net/DTD/sodipodi-0.dtd"
   xmlns:inkscape="http://www.inkscape.org/namespaces/inkscape"
   width="110"
   height="110"
   id="svg3504"
   version="1.1"
   inkscape:version="0.48.3.1 r9886"
   sodipodi:docname="br.svg">
  <defs
     id="defs3506" />
  <sodipodi:namedview
     id="base"
     pagecolor="#ffffff"
     bordercolor="#666666"
     borderopacity="1.0"
     inkscape:pageopacity="0.0"
     inkscape:pageshadow="2"
     inkscape:zoom="0.35"
     inkscape:cx="36.50747"
     inkscape:cy="43.808976"
     inkscape:document-units="px"
     inkscape:current-layer="layer1"
     showgrid="false"
     fit-margin-top="0"
     fit-margin-left="0"
     fit-margin-right="0"
     fit-margin-bottom="0"
     inkscape:window-width="639"
     inkscape:window-height="406"
     inkscape:window-x="65"
     inkscape:window-y="24"
     inkscape:window-maximized="0" />
  <metadata
     id="metadata3509">
    <rdf:RDF>
      <cc:Work
         rdf:about="">
        <dc:format>image/svg+xml</dc:format>
        <dc:type
           rdf:resource="http://purl.org/dc/dcmitype/StillImage" />
        <dc:title />
      </cc:Work>
    </rdf:RDF>
  </metadata>
  <g
     inkscape:label="Layer 1"
     inkscape:groupmode="layer"
     id="layer1"
     transform="translate(-338.49253,-466.17115)">
    <g
       style="display:block"
       id="brook"
       transform="translate(43.63331,471.69596)">
      <path
         inkscape:connector-curvature="0"
         style="fill:#000000"
         d="m 357.21422,12.994465 9.09342,0 0,-7.328252 14.65648,0 0,20.059058 -11.87495,9.146924 0,25.568598 9.09344,9.093441 0,10.965617 8.18408,0 0,12.784308 -73.01494,0 0,-12.784308 8.18408,0 0,-10.965617 9.14695,-9.093441 0,-25.568598 -11.87497,-9.146924 0,-20.059058 14.603,0 0,7.328252 9.14692,0 0,-7.328252 14.65649,0 0,7.328252"
         id="brook-outer" />
      <path
         inkscape:connector-curvature="0"
         style="fill:#ffffff"
         d="m 325.28021,79.643998 0,5.456057 49.21153,0 0,-5.456057 -49.21153,0"
         id="brook-inner1" />
      <path
         inkscape:connector-curvature="0"
         style="fill:#ffffff"
         d="m 349.88596,21.232053 -27.38729,0 0,2.460572 3.90484,2.941982 47.01841,0 3.79785,-2.941982 0,-2.460572 -27.33381,0"
         id="brook-inner2" />
      <path
         inkscape:connector-curvature="0"
         style="fill:#ffffff"
         d="m 349.88596,30.271991 -18.72177,0 3.20944,2.514075 0,3.048968 31.02467,0 0,-3.048968 3.20944,-2.514075 -18.72178,0"
         id="brook-inner3" />
      <path
         inkscape:connector-curvature="0"
         style="fill:#ffffff"
         d="m 349.88596,59.477973 -15.51233,0 0,2.460572 -3.20944,3.102471 37.44355,0 -3.20944,-3.102471 0,-2.460572 -15.51234,0"
         id="brook-inner4" />
      <path
         inkscape:connector-curvature="0"
         style="fill:#ffffff"
         d="m 349.88596,68.678381 -22.14518,0 -2.46057,2.300102 0,3.102471 49.21153,0 0,-3.102471 -2.46059,-2.300102 -22.14519,0"
         id="brook-inner5" />
    </g>
  </g>
</svg>
