<?xml version="1.0" encoding="UTF-8" standalone="no"?>
<!-- Created with Inkscape (http://www.inkscape.org/) -->

<svg
   xmlns:dc="http://purl.org/dc/elements/1.1/"
   xmlns:cc="http://creativecommons.org/ns#"
   xmlns:rdf="http://www.w3.org/1999/02/22-rdf-syntax-ns#"
   xmlns:svg="http://www.w3.org/2000/svg"
   xmlns="http://www.w3.org/2000/svg"
   xmlns:sodipodi="http://sodipodi.sourceforge.net/DTD/sodipodi-0.dtd"
   xmlns:inkscape="http://www.inkscape.org/namespaces/inkscape"
   width="110"
   height="110"
   id="svg3114"
   version="1.1"
   inkscape:version="0.48.3.1 r9886"
   sodipodi:docname="wq.svg">
  <defs
     id="defs3116" />
  <sodipodi:namedview
     id="base"
     pagecolor="#ffffff"
     bordercolor="#666666"
     borderopacity="1.0"
     inkscape:pageopacity="0.0"
     inkscape:pageshadow="2"
     inkscape:zoom="1"
     inkscape:cx="-69.521"
     inkscape:cy="45.788127"
     inkscape:document-units="px"
     inkscape:current-layer="layer1"
     showgrid="false"
     fit-margin-top="0"
     fit-margin-left="0"
     fit-margin-right="0"
     fit-margin-bottom="0"
     inkscape:window-width="1535"
     inkscape:window-height="876"
     inkscape:window-x="65"
     inkscape:window-y="24"
     inkscape:window-maximized="1" />
  <metadata
     id="metadata3119">
    <rdf:RDF>
      <cc:Work
         rdf:about="">
        <dc:format>image/svg+xml</dc:format>
        <dc:type
           rdf:resource="http://purl.org/dc/dcmitype/StillImage" />
        <dc:title />
      </cc:Work>
    </rdf:RDF>
  </metadata>
  <g
     inkscape:label="Layer 1"
     inkscape:groupmode="layer"
     id="layer1"
     transform="translate(-325.521,-468.15031)">
    <g
       id="wqueen"
       transform="translate(-170.51677,274.22798)">
      <path
         inkscape:connector-curvature="0"
         style="fill:#000000"
         d="m 550.98428,217.7372 c -2.0327,8e-5 -3.76225,-0.71313 -5.18862,-2.13963 -1.3908,-1.42633 -2.08618,-3.15588 -2.08613,-5.18862 -5e-5,-1.99689 0.69533,-3.70859 2.08613,-5.13512 1.42637,-1.42631 3.15592,-2.13953 5.18862,-2.13963 1.99693,1e-4 3.70863,0.71332 5.13512,2.13963 1.46201,1.42653 2.19306,3.13823 2.19312,5.13512 -6e-5,2.03274 -0.73111,3.76229 -2.19312,5.18862 -1.42649,1.4265 -3.13819,2.13971 -5.13512,2.13963"
         id="wqueen-outer-disc3" />
      <path
         inkscape:connector-curvature="0"
         style="fill:#000000"
         d="m 583.93462,289.30788 c -1.74747,1.53341 -5.67011,2.81719 -11.76799,3.85133 -6.09801,1.03417 -13.12313,1.55126 -21.07538,1.55124 -8.09498,2e-5 -15.20926,-0.53489 -21.34282,-1.60472 -6.13363,-1.06981 -10.00281,-2.40707 -11.60751,-4.01181 l 3.36993,-12.83779 -1.49774,-8.39806 -4.70719,-8.18408 -4.54672,-33.2713 2.62104,-1.01632 14.65649,24.71275 0.32094,-29.41994 3.63738,-0.64188 11.17957,29.58041 5.99097,-31.82703 3.69087,0 5.99097,31.72004 11.07258,-29.47342 3.69087,0.64188 0.32096,29.41994 14.70997,-24.76623 2.51405,1.17679 -4.43973,33.1108 -4.76068,8.18411 -1.49775,8.50502 3.47692,12.99827"
         id="wqueen-outer" />
      <path
         inkscape:connector-curvature="0"
         style="fill:#ffffff"
         d="m 550.98428,213.99283 c 2.38919,1e-4 3.58383,-1.19454 3.58388,-3.58388 -5e-5,-2.35349 -1.19469,-3.5303 -3.58388,-3.5304 -2.35366,1e-4 -3.53045,1.17691 -3.53039,3.5304 -6e-5,2.38934 1.17673,3.58398 3.53039,3.58388"
         id="wqueen-inner-disc3" />
      <path
         inkscape:connector-curvature="0"
         style="fill:#000000"
         d="m 528.51814,220.41173 c -2.03269,9e-5 -3.76221,-0.69529 -5.1886,-2.08613 -1.42645,-1.42633 -2.13965,-3.15588 -2.13963,-5.18862 -2e-5,-1.99689 0.71318,-3.70859 2.13963,-5.13512 1.42639,-1.42631 3.15591,-2.13953 5.1886,-2.13963 1.99696,10e-5 3.70867,0.71332 5.13511,2.13963 1.42639,1.42653 2.1396,3.13823 2.13964,5.13512 -4e-5,2.03274 -0.71325,3.76229 -2.13964,5.18862 -1.42644,1.39084 -3.13815,2.08622 -5.13511,2.08613"
         id="wqueen-outer-disc2" />
      <path
         inkscape:connector-curvature="0"
         style="fill:#ffffff"
         d="m 578.2111,267.85807 c -6.88256,-1.74733 -15.88683,-2.621 -27.01286,-2.62104 -11.41141,4e-5 -20.52267,0.89154 -27.33379,2.67453 l 0.80235,5.13511 c 6.95377,-1.64034 15.79758,-2.46053 26.53144,-2.46057 10.66244,4e-5 19.36359,0.80239 26.10351,2.40709 l 0.90935,-5.13512"
         id="wqueen-inner-middle-middle" />
      <path
         inkscape:connector-curvature="0"
         style="fill:#ffffff"
         d="m 579.54837,264.64861 3.47689,-6.15143 c -1.71178,0.6776 -3.45915,1.01638 -5.24208,1.01632 -4.7786,6e-5 -8.59427,-1.94344 -11.44705,-5.83048 -2.13969,1.78307 -4.52894,2.67458 -7.16776,2.67452 -3.42347,6e-5 -6.1515,-1.33722 -8.18409,-4.0118 -2.28234,2.49629 -5.01036,3.74441 -8.1841,3.74435 -2.5676,6e-5 -4.92118,-0.87362 -7.06078,-2.62105 -2.99552,3.81574 -6.86468,5.72358 -11.60751,5.72352 -1.81871,6e-5 -3.61957,-0.33872 -5.40256,-1.01632 l 3.74435,6.41889 c 6.91811,-1.99694 16.42164,-2.99544 28.5106,-2.99548 12.30282,4e-5 21.82417,1.01636 28.56409,3.04896"
         id="wqueen-inner-middle-upper" />
      <path
         inkscape:connector-curvature="0"
         style="fill:#000000"
         d="m 573.45041,220.41173 c -2.03272,9e-5 -3.76225,-0.69529 -5.1886,-2.08613 -1.39084,-1.42633 -2.08621,-3.15588 -2.08615,-5.18862 -6e-5,-1.99689 0.69531,-3.70859 2.08615,-5.13512 1.42635,-1.42631 3.15588,-2.13953 5.1886,-2.13963 2.03257,10e-5 3.76211,0.71332 5.18862,2.13963 1.42633,1.42653 2.13953,3.13823 2.13963,5.13512 -10e-5,2.03274 -0.7133,3.76229 -2.13963,5.18862 -1.42651,1.39084 -3.15605,2.08622 -5.18862,2.08613"
         id="wqueen-outer-disc4" />
      <path
         inkscape:connector-curvature="0"
         style="fill:#ffffff"
         d="m 555.58449,251.86433 -4.54672,-26.15702 -4.54672,25.83608 c 0.10692,-0.0713 0.35656,-0.24958 0.74886,-0.53492 0.82015,-1.60468 2.06827,-2.40703 3.74437,-2.40709 1.81864,6e-5 2.99543,0.80241 3.53038,2.40709 0.21392,0.21402 0.57052,0.49929 1.06983,0.85586"
         id="wqueen-inner-spike3" />
      <path
         inkscape:connector-curvature="0"
         style="fill:#000000"
         d="m 508.83352,226.29573 c -2.03266,8e-5 -3.76219,-0.69531 -5.1886,-2.08615 -1.39076,-1.42635 -2.08615,-3.15588 -2.08615,-5.1886 0,-1.99691 0.69539,-3.70861 2.08615,-5.13512 1.42641,-1.46199 3.15594,-2.19304 5.1886,-2.19313 2.03265,9e-5 3.76218,0.73114 5.18862,2.19313 1.42639,1.42651 2.13962,3.13821 2.13963,5.13512 -1e-5,2.03272 -0.71324,3.76225 -2.13963,5.1886 -1.42644,1.39084 -3.15597,2.08623 -5.18862,2.08615"
         id="wqueen-outer-disc1" />
      <path
         inkscape:connector-curvature="0"
         style="fill:#ffffff"
         d="m 570.40144,252.88065 0,-24.76625 -8.82598,24.28484 c 0.67748,-0.24958 1.24806,-0.57052 1.7117,-0.96284 0.71315,-0.89146 1.67597,-1.33722 2.8885,-1.33728 1.42635,6e-5 2.56748,0.62411 3.42341,1.87219 0.10691,0.14269 0.23172,0.30316 0.37445,0.48141 0.14257,0.14269 0.2852,0.28534 0.42792,0.42793"
         id="wqueen-inner-spike4" />
      <path
         inkscape:connector-curvature="0"
         style="fill:#000000"
         d="m 593.24201,226.29573 c -2.03274,8e-5 -3.76229,-0.69531 -5.1886,-2.08615 -1.42652,-1.42635 -2.13973,-3.15588 -2.13963,-5.1886 -10e-5,-1.99691 0.71311,-3.70861 2.13963,-5.13512 1.42631,-1.46199 3.15586,-2.19304 5.1886,-2.19313 1.99689,9e-5 3.70859,0.73114 5.13512,2.19313 1.42631,1.42651 2.13953,3.13821 2.13963,5.13512 -10e-5,2.03272 -0.71332,3.76225 -2.13963,5.1886 -1.42653,1.39084 -3.13823,2.08623 -5.13512,2.08615"
         id="wqueen-outer-disc5" />
      <path
         inkscape:connector-curvature="0"
         style="fill:#ffffff"
         d="m 540.33961,252.13178 -8.77248,-24.01738 0,24.44531 c 0.10692,-0.14259 0.26741,-0.3209 0.48141,-0.53491 0.71316,-1.4977 1.88997,-2.24656 3.53039,-2.24662 1.35505,6e-5 2.46054,0.57063 3.31643,1.7117 0.96278,0.42799 1.44421,0.64194 1.44425,0.6419"
         id="wqueen-inner-spike2" />
      <path
         inkscape:connector-curvature="0"
         style="fill:#ffffff"
         d="m 526.75295,255.12727 -11.50053,-19.84509 2.942,18.07988 c 2.03263,1.42648 4.01179,2.13969 5.93747,2.13963 0.74884,6e-5 1.62254,-0.12475 2.62106,-0.37442"
         id="wqueen-inner-spike1" />
      <path
         inkscape:connector-curvature="0"
         style="fill:#ffffff"
         d="m 575.05513,255.39472 c 0.82011,0.24968 1.72947,0.37449 2.72805,0.37443 2.17519,6e-5 4.20784,-0.67751 6.09793,-2.03265 l 2.94201,-18.50782 -11.76799,20.16604"
         id="wqueen-inner-spike5" />
      <path
         inkscape:connector-curvature="0"
         style="fill:#ffffff"
         d="m 578.26459,282.46105 -1.60472,-6.04445 c -6.98955,-1.53337 -15.54806,-2.30008 -25.67559,-2.3001 -10.02065,2e-5 -18.56134,0.76673 -25.6221,2.3001 l -1.65822,6.09796 c 6.63283,-1.99697 15.74409,-2.99547 27.33381,-2.99549 11.30432,2e-5 20.37992,0.98068 27.22682,2.94198"
         id="wqueen-inner-middle-bottom" />
      <path
         inkscape:connector-curvature="0"
         style="fill:#ffffff"
         d="m 579.60185,287.38222 c -6.52594,-2.71019 -15.99381,-4.06529 -28.40361,-4.06531 -12.65952,2e-5 -22.23437,1.39078 -28.72456,4.17229 6.24057,2.4606 15.76192,3.69087 28.56409,3.69085 6.13356,2e-5 11.73224,-0.33876 16.79611,-1.01632 5.09938,-0.67752 9.02204,-1.6047 11.76797,-2.78151"
         id="wqueen-inner-bottom" />
      <path
         inkscape:connector-curvature="0"
         style="fill:#ffffff"
         d="m 528.51814,216.66737 c 2.35356,1e-4 3.53036,-1.17671 3.5304,-3.53039 -4e-5,-2.35349 -1.17684,-3.5303 -3.5304,-3.53038 -2.38929,8e-5 -3.5839,1.17689 -3.58388,3.53038 -2e-5,2.35368 1.19459,3.53049 3.58388,3.53039"
         id="wqueen-inner-disc2" />
      <path
         inkscape:connector-curvature="0"
         style="fill:#ffffff"
         d="m 573.45041,216.66737 c 2.38919,1e-4 3.5838,-1.17671 3.58388,-3.53039 -8e-5,-2.35349 -1.19469,-3.5303 -3.58388,-3.53038 -2.35366,8e-5 -3.53046,1.17689 -3.5304,3.53038 -6e-5,2.35368 1.17674,3.53049 3.5304,3.53039"
         id="wqueen-inner-disc4" />
      <path
         inkscape:connector-curvature="0"
         style="fill:#ffffff"
         d="m 508.83352,222.55136 c 2.38925,9e-5 3.58386,-1.17672 3.58388,-3.53038 -2e-5,-2.38917 -1.19463,-3.5838 -3.58388,-3.5839 -2.3536,1e-4 -3.53039,1.19473 -3.53039,3.5839 0,2.35366 1.17679,3.53047 3.53039,3.53038"
         id="path1638" />
      <path
         inkscape:connector-curvature="0"
         style="fill:#ffffff"
         d="m 593.24201,222.55136 c 2.35349,9e-5 3.5303,-1.17672 3.5304,-3.53038 -1e-4,-2.38917 -1.17691,-3.5838 -3.5304,-3.5839 -2.38934,1e-4 -3.58398,1.19473 -3.58388,3.5839 -10e-5,2.35366 1.19454,3.53047 3.58388,3.53038"
         id="path1637" />
    </g>
  </g>
</svg>
